# banner converted from Panda3D bam (world transforms applied)
mtllib banner.mtl
o banner-diffuse
usemtl banner-diffuse
v 5.180861 4.442337 6.709040
v 5.144649 4.442337 6.709041
v 5.180861 4.710687 6.718874
v 5.144649 4.710687 6.718874
v 5.180861 4.710580 6.882910
v 5.144649 4.710580 6.882911
v 5.180861 4.442982 6.883574
v 5.144649 4.442982 6.883574
v 5.180861 2.299327 6.732374
v 5.180861 2.293332 6.229985
v 5.180861 2.296428 6.417038
v 5.180861 2.298073 6.576721
v 5.144648 2.299327 6.732375
v 5.144648 2.293332 6.229985
v 5.144648 2.296428 6.417038
v 5.144648 2.298073 6.576721
v 5.180861 2.555265 6.741669
v 5.144648 2.555265 6.741669
v 5.180861 2.563917 6.894160
v 5.180861 2.300210 6.884443
v 5.180861 2.835340 6.889066
v 5.180861 3.106183 6.887918
v 5.180861 3.372254 6.885119
v 5.144648 2.300210 6.884444
v 5.144649 2.563917 6.894160
v 5.144649 2.835340 6.889066
v 5.144649 3.106183 6.887918
v 5.144649 3.372254 6.885119
v 5.180861 2.831789 6.713781
v 5.144649 2.831789 6.713781
v 5.180861 3.104121 6.699046
v 5.144649 3.104121 6.699046
v 5.180861 3.372585 6.691420
v 5.144649 3.372585 6.691420
v 5.180861 3.640707 6.689859
v 5.144649 3.640707 6.689860
v 5.180861 3.640377 6.885373
v 5.180861 3.907787 6.886483
v 5.180861 4.175383 6.884238
v 5.144649 3.640377 6.885373
v 5.144649 3.907787 6.886483
v 5.144649 4.175384 6.884238
v 5.180861 3.899972 6.706741
v 5.144649 3.899972 6.706741
v 5.180861 4.172891 6.703015
v 5.144649 4.172891 6.703015
v 5.180861 3.978290 3.539119
v 5.144648 3.978290 3.539119
v 5.180861 4.167965 3.592134
v 5.144648 4.167965 3.592134
v 5.180861 4.170424 3.901679
v 5.144648 4.170424 3.901679
v 5.180861 3.975929 3.808224
v 5.144648 3.975929 3.808224
v 5.180861 3.391369 3.479231
v 5.180861 3.678472 3.464633
v 5.180861 3.652811 3.683366
v 5.180861 3.416202 3.687094
v 5.180861 3.647148 4.216459
v 5.180861 3.389535 3.933938
v 5.180861 3.375519 4.199588
v 5.144648 3.391369 3.479231
v 5.144648 3.416202 3.687094
v 5.144648 3.652811 3.683366
v 5.144648 3.678472 3.464633
v 5.144648 3.647148 4.216459
v 5.144648 3.389535 3.933938
v 5.144648 3.375519 4.199588
v 5.180861 2.842752 3.569679
v 5.144648 2.842752 3.569679
v 5.180861 3.083141 3.553379
v 5.144648 3.083141 3.553379
v 5.180861 3.080910 3.789171
v 5.144648 3.080910 3.789171
v 5.180861 2.864154 3.823117
v 5.144648 2.864154 3.823117
v 5.180861 2.315512 3.618291
v 5.180861 2.309227 3.810442
v 5.180861 2.298282 4.032323
v 5.180861 2.295463 4.203386
v 5.180861 2.294830 4.482249
v 5.144648 2.315512 3.618291
v 5.144648 2.309227 3.810442
v 5.144648 2.298282 4.032323
v 5.144648 2.295463 4.203386
v 5.144648 2.294830 4.482249
v 5.180861 2.566469 3.619972
v 5.180861 2.567038 3.865233
v 5.144648 2.567038 3.865233
v 5.144648 2.566469 3.619972
v 5.180861 4.464398 3.723248
v 5.144648 4.464398 3.723248
v 5.180861 4.675711 3.734253
v 5.180861 4.689794 3.979725
v 5.180861 4.689206 4.210830
v 5.180861 4.688333 4.437780
v 5.144648 4.689794 3.979725
v 5.144648 4.675711 3.734253
v 5.144648 4.689206 4.210830
v 5.144648 4.688333 4.437780
v 5.180861 4.446371 3.967531
v 5.144648 4.446371 3.967531
v 5.180861 4.448257 4.169184
v 5.144648 4.448257 4.169184
v 5.180861 4.182887 4.101801
v 5.144648 4.182887 4.101801
v 5.180861 4.436109 4.382236
v 5.144648 4.436109 4.382236
v 5.180861 4.177207 4.319636
v 5.144648 4.177207 4.319636
v 5.180861 4.430390 4.603348
v 5.144648 4.430390 4.603348
v 5.180861 4.169709 4.546302
v 5.144648 4.169709 4.546302
v 5.180861 4.426627 4.828066
v 5.144648 4.426627 4.828066
v 5.180861 4.164248 4.776817
v 5.144648 4.164248 4.776817
v 5.180861 4.427538 5.051543
v 5.144649 4.427538 5.051543
v 5.180861 4.163037 5.003933
v 5.144648 4.163037 5.003933
v 5.180861 4.431670 5.271494
v 5.144649 4.431670 5.271494
v 5.180861 4.164591 5.228833
v 5.144648 4.164591 5.228833
v 5.180861 4.442200 5.485703
v 5.144649 4.442200 5.485703
v 5.180861 4.168289 5.448944
v 5.144649 4.168289 5.448944
v 5.180861 4.440555 5.715117
v 5.144649 4.440555 5.715117
v 5.180861 4.169835 5.672476
v 5.144649 4.169835 5.672476
v 5.180861 4.441868 5.938836
v 5.144649 4.441868 5.938836
v 5.180861 4.171307 5.893075
v 5.144649 4.171307 5.893075
v 5.180861 4.442073 6.150081
v 5.144649 4.442073 6.150081
v 5.180861 4.172470 6.107952
v 5.144649 4.172470 6.107952
v 5.180861 4.442273 6.345705
v 5.144649 4.442273 6.345705
v 5.180861 4.173540 6.314627
v 5.144649 4.173540 6.314627
v 5.180861 4.442323 6.530304
v 5.144649 4.442323 6.530304
v 5.180861 4.173540 6.511795
v 5.144649 4.173540 6.511795
v 5.180861 3.934756 4.023258
v 5.144648 3.934756 4.023258
v 5.180861 3.916633 4.260993
v 5.144648 3.916633 4.260993
v 5.180861 3.905451 4.500035
v 5.144648 3.905451 4.500035
v 5.180861 3.898581 4.730963
v 5.144648 3.898581 4.730963
v 5.180861 3.895770 4.958540
v 5.144648 3.895770 4.958540
v 5.180861 3.896366 5.191532
v 5.144648 3.896366 5.191532
v 5.180861 3.898017 5.414151
v 5.144648 3.898017 5.414151
v 5.180861 3.899704 5.633255
v 5.144649 3.899704 5.633255
v 5.180861 3.901615 5.854944
v 5.144649 3.901615 5.854945
v 5.180861 3.903917 6.079725
v 5.144649 3.903917 6.079726
v 5.180861 3.905541 6.293211
v 5.144649 3.905541 6.293211
v 5.180861 3.905386 6.499229
v 5.144649 3.905386 6.499229
v 5.180861 3.659558 3.943766
v 5.144648 3.659558 3.943766
v 5.180861 3.636876 4.461929
v 5.144648 3.636876 4.461929
v 5.180861 3.628737 4.689425
v 5.144648 3.628737 4.689425
v 5.180861 3.627360 4.933595
v 5.180861 3.357697 4.925544
v 5.144648 3.627360 4.933595
v 5.144648 3.357697 4.925544
v 5.180861 3.627321 5.167439
v 5.144648 3.627321 5.167439
v 5.180861 3.628111 5.383120
v 5.144648 3.628111 5.383120
v 5.180861 3.629668 5.595081
v 5.144648 3.629668 5.595081
v 5.180861 3.633092 5.833361
v 5.180861 3.361974 5.592371
v 5.180861 3.364706 5.832528
v 5.144649 3.633092 5.833361
v 5.144648 3.361974 5.592371
v 5.144648 3.364706 5.832528
v 5.180861 3.635964 6.063793
v 5.144649 3.635964 6.063793
v 5.180861 3.639310 6.279919
v 5.144649 3.639310 6.279919
v 5.180861 3.641240 6.484593
v 5.144649 3.641240 6.484593
v 5.180861 3.366117 4.445750
v 5.144648 3.366117 4.445750
v 5.180861 3.358575 4.680686
v 5.144648 3.358575 4.680686
v 5.180861 3.357459 5.161772
v 5.144648 3.357459 5.161772
v 5.180861 3.358775 5.380963
v 5.144648 3.358775 5.380963
v 5.180861 3.367293 6.064183
v 5.144649 3.367293 6.064183
v 5.180861 3.371045 6.280364
v 5.144649 3.371045 6.280364
v 5.180861 3.373225 6.486338
v 5.144649 3.373225 6.486338
v 5.180861 3.101600 3.979609
v 5.144648 3.101600 3.979609
v 5.180861 3.099375 4.205816
v 5.144648 3.099375 4.205816
v 5.180861 3.093756 4.444840
v 5.144648 3.093756 4.444840
v 5.180861 3.088519 4.689471
v 5.144648 3.088519 4.689471
v 5.180861 3.086984 4.928799
v 5.144648 3.086984 4.928799
v 5.180861 3.085961 5.173667
v 5.144648 3.085961 5.173667
v 5.180861 3.087351 5.402356
v 5.144648 3.087351 5.402356
v 5.180861 3.092547 5.616068
v 5.144648 3.092547 5.616068
v 5.180861 3.095959 5.844921
v 5.144648 3.095959 5.844921
v 5.180861 3.097321 6.080539
v 5.144648 3.097321 6.080539
v 5.180861 3.100132 6.297095
v 5.144648 3.100132 6.297095
v 5.180861 3.102575 6.501606
v 5.144649 3.102575 6.501607
v 5.180861 2.836773 3.991351
v 5.144648 2.836773 3.991351
v 5.180861 2.826978 4.203379
v 5.144648 2.826978 4.203379
v 5.180861 2.823505 4.454517
v 5.144648 2.823505 4.454517
v 5.180861 2.819776 4.710408
v 5.144648 2.819776 4.710408
v 5.180861 2.814793 4.958408
v 5.144648 2.814793 4.958408
v 5.180861 2.811704 5.202682
v 5.144648 2.811704 5.202682
v 5.180861 2.811691 5.439724
v 5.144648 2.811691 5.439724
v 5.180861 2.819224 5.667409
v 5.144648 2.819224 5.667409
v 5.180861 2.823923 5.893453
v 5.144648 2.823923 5.893453
v 5.180861 2.825897 6.115956
v 5.144648 2.825897 6.115956
v 5.180861 2.829452 6.326100
v 5.144648 2.829452 6.326100
v 5.180861 2.830986 6.524725
v 5.144648 2.830986 6.524725
v 5.180861 2.559001 4.063571
v 5.144648 2.559001 4.063571
v 5.180861 2.557150 4.208644
v 5.144648 2.557150 4.208644
v 5.180861 2.555732 4.462104
v 5.144648 2.555732 4.462104
v 5.180861 2.552286 4.739236
v 5.144648 2.552286 4.739236
v 5.180861 2.543208 4.995065
v 5.144648 2.543208 4.995065
v 5.180861 2.532578 5.243418
v 5.144648 2.532578 5.243418
v 5.180861 2.527815 5.487609
v 5.144648 2.527815 5.487609
v 5.180861 2.548728 5.720407
v 5.144648 2.548728 5.720407
v 5.180861 2.554494 5.946083
v 5.144648 2.554494 5.946083
v 5.180861 2.552114 6.166495
v 5.144648 2.552114 6.166495
v 5.180861 2.559911 6.367087
v 5.144648 2.559911 6.367087
v 5.180861 2.559992 6.557456
v 5.144648 2.559992 6.557456
v 5.180861 2.290053 4.768758
v 5.180861 2.285860 5.041234
v 5.180861 2.281705 5.312810
v 5.144648 2.290053 4.768758
v 5.144648 2.285860 5.041234
v 5.144648 2.281705 5.312810
v 5.180861 2.280454 5.547066
v 5.180861 2.288870 5.778069
v 5.180861 2.291067 6.007631
v 5.144648 2.280454 5.547066
v 5.144648 2.288870 5.778069
v 5.144648 2.291067 6.007631
v 5.180861 4.687484 4.664386
v 5.180861 4.688032 4.884142
v 5.180861 4.689819 5.103249
v 5.180861 4.693302 5.321993
v 5.144649 4.687484 4.664386
v 5.144649 4.688032 4.884142
v 5.144649 4.689819 5.103249
v 5.144649 4.693302 5.321993
v 5.180861 4.698413 5.540660
v 5.180861 4.708899 5.760360
v 5.180861 4.714849 5.991223
v 5.144649 4.698413 5.540660
v 5.144649 4.708899 5.760360
v 5.144649 4.714849 5.991223
v 5.180861 4.712551 6.208098
v 5.180861 4.711135 6.387804
v 5.180861 4.710818 6.554531
v 5.144649 4.712551 6.208098
v 5.144649 4.711135 6.387804
v 5.144649 4.710818 6.554531
vt 0.767264 0.939363
vt 0.767264 0.939363
vt 0.843687 0.943118
vt 0.843687 0.943118
vt 0.834285 0.978136
vt 0.834285 0.978136
vt 0.766828 0.989093
vt 0.766828 0.989093
vt 0.156599 0.938402
vt 0.156675 0.795241
vt 0.156893 0.848547
vt 0.156794 0.894049
vt 0.156599 0.938402
vt 0.156675 0.795241
vt 0.156893 0.848547
vt 0.156794 0.894049
vt 0.224062 0.954360
vt 0.224062 0.954360
vt 0.231411 0.985437
vt 0.170471 0.968060
vt 0.308762 0.984949
vt 0.385935 0.985584
vt 0.461753 0.985731
vt 0.170471 0.968060
vt 0.231411 0.985437
vt 0.308762 0.984949
vt 0.385935 0.985584
vt 0.461753 0.985731
vt 0.307598 0.947397
vt 0.307598 0.947397
vt 0.386793 0.938739
vt 0.386793 0.938739
vt 0.461760 0.935195
vt 0.461760 0.935195
vt 0.538933 0.931051
vt 0.538933 0.931051
vt 0.538145 0.986756
vt 0.614331 0.988022
vt 0.690582 0.988332
vt 0.538145 0.986756
vt 0.614331 0.988022
vt 0.690582 0.988332
vt 0.612743 0.936782
vt 0.612743 0.936782
vt 0.690516 0.936689
vt 0.690516 0.936689
vt 0.654917 0.053618
vt 0.654917 0.053618
vt 0.689700 0.059553
vt 0.689700 0.059553
vt 0.699760 0.138529
vt 0.699760 0.138529
vt 0.644676 0.111211
vt 0.644676 0.111211
vt 0.492212 0.027703
vt 0.549457 0.026409
vt 0.553057 0.074489
vt 0.485630 0.074712
vt 0.549551 0.226357
vt 0.477155 0.144947
vt 0.472219 0.220586
vt 0.492212 0.027703
vt 0.485630 0.074712
vt 0.553057 0.074489
vt 0.549457 0.026409
vt 0.549551 0.226357
vt 0.477155 0.144947
vt 0.472219 0.220586
vt 0.341731 0.050910
vt 0.341731 0.050910
vt 0.381366 0.048350
vt 0.381366 0.048350
vt 0.389737 0.102605
vt 0.389737 0.102605
vt 0.327858 0.111507
vt 0.327858 0.111507
vt 0.182726 0.066580
vt 0.169794 0.105925
vt 0.165888 0.169104
vt 0.164478 0.217833
vt 0.163307 0.297284
vt 0.182726 0.066580
vt 0.169794 0.105925
vt 0.165888 0.169104
vt 0.164478 0.217833
vt 0.163307 0.297284
vt 0.234536 0.074717
vt 0.243055 0.122451
vt 0.243055 0.122451
vt 0.234536 0.074717
vt 0.794610 0.102268
vt 0.794610 0.102268
vt 0.833861 0.101848
vt 0.847461 0.162609
vt 0.846472 0.228454
vt 0.845418 0.293113
vt 0.847461 0.162609
vt 0.833861 0.101848
vt 0.846472 0.228454
vt 0.845418 0.293113
vt 0.778148 0.158271
vt 0.778148 0.158271
vt 0.777970 0.215732
vt 0.777970 0.215732
vt 0.702600 0.195591
vt 0.702600 0.195591
vt 0.773752 0.276392
vt 0.773752 0.276392
vt 0.700208 0.257636
vt 0.700208 0.257636
vt 0.771337 0.339370
vt 0.771337 0.339370
vt 0.697267 0.322191
vt 0.697267 0.322191
vt 0.769467 0.403383
vt 0.769467 0.403383
vt 0.694893 0.387850
vt 0.694893 0.387850
vt 0.768933 0.467059
vt 0.768933 0.467059
vt 0.693741 0.452555
vt 0.693741 0.452555
vt 0.769329 0.529742
vt 0.769329 0.529742
vt 0.693385 0.516639
vt 0.693385 0.516639
vt 0.771569 0.590811
vt 0.771569 0.590811
vt 0.693658 0.579365
vt 0.693658 0.579365
vt 0.770286 0.656170
vt 0.770286 0.656170
vt 0.693304 0.643059
vt 0.693304 0.643059
vt 0.769866 0.719916
vt 0.769866 0.719916
vt 0.692940 0.705917
vt 0.692940 0.705917
vt 0.769174 0.780104
vt 0.769174 0.780104
vt 0.692509 0.767144
vt 0.692509 0.767144
vt 0.768536 0.835842
vt 0.768536 0.835842
vt 0.692080 0.826033
vt 0.692080 0.826033
vt 0.767895 0.888438
vt 0.767895 0.888438
vt 0.691379 0.882210
vt 0.691379 0.882210
vt 0.632182 0.172332
vt 0.632182 0.172332
vt 0.626174 0.240003
vt 0.626174 0.240003
vt 0.622139 0.308070
vt 0.622139 0.308070
vt 0.619362 0.373842
vt 0.619362 0.373842
vt 0.617753 0.438673
vt 0.617753 0.438673
vt 0.617096 0.505058
vt 0.617096 0.505058
vt 0.616776 0.568493
vt 0.616776 0.568493
vt 0.616478 0.630925
vt 0.616478 0.630925
vt 0.616235 0.694095
vt 0.616235 0.694095
vt 0.616093 0.758148
vt 0.616093 0.758148
vt 0.615798 0.818980
vt 0.615798 0.818980
vt 0.615022 0.877677
vt 0.615022 0.877677
vt 0.554055 0.148706
vt 0.554055 0.148706
vt 0.545753 0.296260
vt 0.545753 0.296260
vt 0.542626 0.361048
vt 0.542626 0.361048
vt 0.541367 0.430612
vt 0.464563 0.427361
vt 0.541367 0.430612
vt 0.464563 0.427361
vt 0.540525 0.497239
vt 0.540525 0.497239
vt 0.539985 0.558693
vt 0.539985 0.558693
vt 0.539676 0.619090
vt 0.539676 0.619090
vt 0.539805 0.686993
vt 0.463414 0.617367
vt 0.463340 0.685802
vt 0.539805 0.686993
vt 0.463414 0.617367
vt 0.463340 0.685802
vt 0.539805 0.752657
vt 0.539805 0.752657
vt 0.539991 0.814247
vt 0.539991 0.814247
vt 0.539814 0.872569
vt 0.539814 0.872569
vt 0.468666 0.290689
vt 0.468666 0.290689
vt 0.465683 0.357599
vt 0.465683 0.357599
vt 0.463657 0.494666
vt 0.463657 0.494666
vt 0.463254 0.557122
vt 0.463254 0.557122
vt 0.463254 0.751814
vt 0.463254 0.751814
vt 0.463556 0.813421
vt 0.463556 0.813421
vt 0.463446 0.872115
vt 0.463446 0.872115
vt 0.394955 0.156937
vt 0.394955 0.156937
vt 0.393518 0.221380
vt 0.393518 0.221380
vt 0.391069 0.289462
vt 0.391069 0.289462
vt 0.388708 0.359143
vt 0.388708 0.359143
vt 0.387421 0.427327
vt 0.387421 0.427327
vt 0.386260 0.497091
vt 0.386260 0.497091
vt 0.385844 0.562253
vt 0.385844 0.562253
vt 0.386565 0.623162
vt 0.386565 0.623162
vt 0.386725 0.688379
vt 0.386725 0.688379
vt 0.386276 0.755516
vt 0.386276 0.755516
vt 0.386308 0.817226
vt 0.386308 0.817226
vt 0.386278 0.875504
vt 0.386278 0.875504
vt 0.319460 0.159342
vt 0.319460 0.159342
vt 0.315916 0.219718
vt 0.315916 0.219718
vt 0.314035 0.291260
vt 0.314035 0.291260
vt 0.312064 0.364155
vt 0.312064 0.364155
vt 0.309763 0.434797
vt 0.309763 0.434797
vt 0.308016 0.504384
vt 0.308016 0.504384
vt 0.307170 0.571921
vt 0.307170 0.571921
vt 0.308508 0.636820
vt 0.308508 0.636820
vt 0.309045 0.701241
vt 0.309045 0.701241
vt 0.308817 0.764643
vt 0.308817 0.764643
vt 0.309084 0.824529
vt 0.309084 0.824529
vt 0.308816 0.881127
vt 0.308816 0.881127
vt 0.240061 0.178933
vt 0.240061 0.178933
vt 0.239018 0.220260
vt 0.239018 0.220260
vt 0.237714 0.292471
vt 0.237714 0.292471
vt 0.235749 0.371418
vt 0.235749 0.371418
vt 0.232254 0.444277
vt 0.232254 0.444277
vt 0.228343 0.514999
vt 0.228343 0.514999
vt 0.226119 0.584557
vt 0.226119 0.584557
vt 0.231251 0.650959
vt 0.231251 0.650959
vt 0.232092 0.715279
vt 0.232092 0.715279
vt 0.230632 0.778070
vt 0.230632 0.778070
vt 0.232141 0.835250
vt 0.232141 0.835250
vt 0.231488 0.889490
vt 0.231488 0.889490
vt 0.160929 0.378899
vt 0.158767 0.456517
vt 0.156618 0.533880
vt 0.160929 0.378899
vt 0.158767 0.456517
vt 0.156618 0.533880
vt 0.155430 0.600619
vt 0.157008 0.666466
vt 0.156819 0.731880
vt 0.155430 0.600619
vt 0.157008 0.666466
vt 0.156819 0.731880
vt 0.844371 0.357674
vt 0.843747 0.420288
vt 0.843478 0.482722
vt 0.843694 0.545059
vt 0.844371 0.357674
vt 0.843747 0.420288
vt 0.843478 0.482722
vt 0.843694 0.545059
vt 0.844374 0.607379
vt 0.846581 0.670013
vt 0.847457 0.735811
vt 0.844374 0.607379
vt 0.846581 0.670013
vt 0.847457 0.735811
vt 0.846032 0.797595
vt 0.844990 0.848791
vt 0.844308 0.896294
vt 0.846032 0.797595
vt 0.844990 0.848791
vt 0.844308 0.896294
vn 1.000000 0.000000 0.000000
vn -1.000000 0.000000 0.000000
vn 1.000000 0.000000 0.000000
vn -1.000000 0.000000 0.000000
vn 1.000000 0.000000 0.000000
vn -1.000000 0.000000 0.000000
vn 1.000000 0.000000 0.000000
vn -1.000000 0.000000 0.000000
vn 1.000000 0.000000 0.000000
vn 1.000000 0.000000 0.000000
vn 1.000000 0.000000 0.000000
vn 1.000000 0.000000 0.000000
vn -1.000000 0.000000 0.000000
vn -1.000000 0.000000 0.000000
vn -1.000000 0.000000 0.000000
vn -1.000000 0.000000 0.000000
vn 1.000000 0.000000 0.000000
vn -1.000000 0.000000 0.000000
vn 1.000000 0.000000 0.000000
vn 1.000000 0.000000 0.000000
vn 1.000000 0.000000 0.000000
vn 1.000000 0.000000 0.000000
vn 1.000000 0.000000 0.000000
vn -1.000000 0.000000 0.000000
vn -1.000000 0.000000 0.000000
vn -1.000000 0.000000 0.000000
vn -1.000000 0.000000 0.000000
vn -1.000000 0.000000 0.000000
vn 1.000000 0.000000 0.000000
vn -1.000000 0.000000 0.000000
vn 1.000000 0.000000 0.000000
vn -1.000000 0.000000 0.000000
vn 1.000000 0.000000 0.000000
vn -1.000000 0.000000 0.000000
vn 1.000000 0.000000 0.000000
vn -1.000000 0.000000 0.000000
vn 1.000000 0.000000 0.000000
vn 1.000000 0.000000 0.000000
vn 1.000000 0.000000 0.000000
vn -1.000000 0.000000 0.000000
vn -1.000000 0.000000 0.000000
vn -1.000000 0.000000 0.000000
vn 1.000000 0.000000 0.000000
vn -1.000000 0.000000 0.000000
vn 1.000000 0.000000 0.000000
vn -1.000000 0.000000 0.000000
vn 1.000000 0.000000 0.000000
vn -1.000000 0.000000 0.000000
vn 1.000000 0.000000 0.000000
vn -1.000000 0.000000 0.000000
vn 1.000000 0.000000 0.000000
vn -1.000000 0.000000 0.000000
vn 1.000000 0.000000 0.000000
vn -1.000000 0.000000 0.000000
vn 1.000000 0.000000 0.000000
vn 1.000000 0.000000 0.000000
vn 1.000000 0.000000 0.000000
vn 1.000000 0.000000 0.000000
vn 1.000000 0.000000 0.000000
vn 1.000000 0.000000 0.000000
vn 1.000000 0.000000 0.000000
vn -1.000000 0.000000 0.000000
vn -1.000000 0.000000 0.000000
vn -1.000000 0.000000 0.000000
vn -1.000000 0.000000 0.000000
vn -1.000000 0.000000 0.000000
vn -1.000000 0.000000 0.000000
vn -1.000000 0.000000 0.000000
vn 1.000000 0.000000 0.000000
vn -1.000000 0.000000 0.000000
vn 1.000000 0.000000 0.000000
vn -1.000000 0.000000 0.000000
vn 1.000000 0.000000 0.000000
vn -1.000000 0.000000 0.000000
vn 1.000000 0.000000 0.000000
vn -1.000000 0.000000 0.000000
vn 1.000000 0.000000 0.000000
vn 1.000000 0.000000 0.000000
vn 1.000000 0.000000 0.000000
vn 1.000000 0.000000 0.000000
vn 1.000000 0.000000 0.000000
vn -1.000000 0.000000 0.000000
vn -1.000000 0.000000 0.000000
vn -1.000000 0.000000 0.000000
vn -1.000000 0.000000 0.000000
vn -1.000000 0.000000 0.000000
vn 1.000000 0.000000 0.000000
vn 1.000000 0.000000 0.000000
vn -1.000000 0.000000 0.000000
vn -1.000000 0.000000 0.000000
vn 1.000000 0.000000 0.000000
vn -1.000000 0.000000 0.000000
vn 1.000000 0.000000 0.000000
vn 1.000000 0.000000 0.000000
vn 1.000000 0.000000 0.000000
vn 1.000000 0.000000 0.000000
vn -1.000000 0.000000 0.000000
vn -1.000000 0.000000 0.000000
vn -1.000000 0.000000 0.000000
vn -1.000000 0.000000 0.000000
vn 1.000000 0.000000 0.000000
vn -1.000000 0.000000 0.000000
vn 1.000000 0.000000 0.000000
vn -1.000000 0.000000 0.000000
vn 1.000000 0.000000 0.000000
vn -1.000000 0.000000 0.000000
vn 1.000000 0.000000 0.000000
vn -1.000000 0.000000 0.000000
vn 1.000000 0.000000 0.000000
vn -1.000000 0.000000 0.000000
vn 1.000000 0.000000 0.000000
vn -1.000000 0.000000 0.000000
vn 1.000000 0.000000 0.000000
vn -1.000000 0.000000 0.000000
vn 1.000000 0.000000 0.000000
vn -1.000000 0.000000 0.000000
vn 1.000000 0.000000 0.000000
vn -1.000000 0.000000 0.000000
vn 1.000000 0.000000 0.000000
vn -1.000000 0.000000 0.000000
vn 1.000000 0.000000 0.000000
vn -1.000000 0.000000 0.000000
vn 1.000000 0.000000 0.000000
vn -1.000000 0.000000 0.000000
vn 1.000000 0.000000 0.000000
vn -1.000000 0.000000 0.000000
vn 1.000000 0.000000 0.000000
vn -1.000000 0.000000 0.000000
vn 1.000000 0.000000 0.000000
vn -1.000000 0.000000 0.000000
vn 1.000000 0.000000 0.000000
vn -1.000000 0.000000 0.000000
vn 1.000000 0.000000 0.000000
vn -1.000000 0.000000 0.000000
vn 1.000000 0.000000 0.000000
vn -1.000000 0.000000 0.000000
vn 1.000000 0.000000 0.000000
vn -1.000000 0.000000 0.000000
vn 1.000000 0.000000 0.000000
vn -1.000000 0.000000 0.000000
vn 1.000000 0.000000 0.000000
vn -1.000000 0.000000 0.000000
vn 1.000000 0.000000 0.000000
vn -1.000000 0.000000 0.000000
vn 1.000000 0.000000 0.000000
vn -1.000000 0.000000 0.000000
vn 1.000000 0.000000 0.000000
vn -1.000000 0.000000 0.000000
vn 1.000000 0.000000 0.000000
vn -1.000000 0.000000 0.000000
vn 1.000000 0.000000 0.000000
vn -1.000000 0.000000 0.000000
vn 1.000000 0.000000 0.000000
vn -1.000000 0.000000 0.000000
vn 1.000000 0.000000 0.000000
vn -1.000000 0.000000 0.000000
vn 1.000000 0.000000 0.000000
vn -1.000000 0.000000 0.000000
vn 1.000000 0.000000 0.000000
vn -1.000000 0.000000 0.000000
vn 1.000000 0.000000 0.000000
vn -1.000000 0.000000 0.000000
vn 1.000000 0.000000 0.000000
vn -1.000000 0.000000 0.000000
vn 1.000000 0.000000 0.000000
vn -1.000000 0.000000 0.000000
vn 1.000000 0.000000 0.000000
vn -1.000000 0.000000 0.000000
vn 1.000000 0.000000 0.000000
vn -1.000000 0.000000 0.000000
vn 1.000000 0.000000 0.000000
vn -1.000000 0.000000 0.000000
vn 1.000000 0.000000 0.000000
vn -1.000000 0.000000 0.000000
vn 1.000000 0.000000 0.000000
vn -1.000000 0.000000 0.000000
vn 1.000000 0.000000 0.000000
vn -1.000000 0.000000 0.000000
vn 1.000000 0.000000 0.000000
vn -1.000000 0.000000 0.000000
vn 1.000000 0.000000 0.000000
vn 1.000000 0.000000 0.000000
vn -1.000000 0.000000 0.000000
vn -1.000000 0.000000 0.000000
vn 1.000000 0.000000 0.000000
vn -1.000000 0.000000 0.000000
vn 1.000000 0.000000 0.000000
vn -1.000000 0.000000 0.000000
vn 1.000000 0.000000 0.000000
vn -1.000000 0.000000 0.000000
vn 1.000000 0.000000 0.000000
vn 1.000000 0.000000 0.000000
vn 1.000000 0.000000 0.000000
vn -1.000000 0.000000 0.000000
vn -1.000000 0.000000 0.000000
vn -1.000000 0.000000 0.000000
vn 1.000000 0.000000 0.000000
vn -1.000000 0.000000 0.000000
vn 1.000000 0.000000 0.000000
vn -1.000000 0.000000 0.000000
vn 1.000000 0.000000 0.000000
vn -1.000000 0.000000 0.000000
vn 1.000000 0.000000 0.000000
vn -1.000000 0.000000 0.000000
vn 1.000000 0.000000 0.000000
vn -1.000000 0.000000 0.000000
vn 1.000000 0.000000 0.000000
vn -1.000000 0.000000 0.000000
vn 1.000000 0.000000 0.000000
vn -1.000000 0.000000 0.000000
vn 1.000000 0.000000 0.000000
vn -1.000000 0.000000 0.000000
vn 1.000000 0.000000 0.000000
vn -1.000000 0.000000 0.000000
vn 1.000000 0.000000 0.000000
vn -1.000000 0.000000 0.000000
vn 1.000000 0.000000 0.000000
vn -1.000000 0.000000 0.000000
vn 1.000000 0.000000 0.000000
vn -1.000000 0.000000 0.000000
vn 1.000000 0.000000 0.000000
vn -1.000000 0.000000 0.000000
vn 1.000000 0.000000 0.000000
vn -1.000000 0.000000 0.000000
vn 1.000000 0.000000 0.000000
vn -1.000000 0.000000 0.000000
vn 1.000000 0.000000 0.000000
vn -1.000000 0.000000 0.000000
vn 1.000000 0.000000 0.000000
vn -1.000000 0.000000 0.000000
vn 1.000000 0.000000 0.000000
vn -1.000000 0.000000 0.000000
vn 1.000000 0.000000 0.000000
vn -1.000000 0.000000 0.000000
vn 1.000000 0.000000 0.000000
vn -1.000000 0.000000 0.000000
vn 1.000000 0.000000 0.000000
vn -1.000000 0.000000 0.000000
vn 1.000000 0.000000 0.000000
vn -1.000000 0.000000 0.000000
vn 1.000000 0.000000 0.000000
vn -1.000000 0.000000 0.000000
vn 1.000000 0.000000 0.000000
vn -1.000000 0.000000 0.000000
vn 1.000000 0.000000 0.000000
vn -1.000000 0.000000 0.000000
vn 1.000000 0.000000 0.000000
vn -1.000000 0.000000 0.000000
vn 1.000000 0.000000 0.000000
vn -1.000000 0.000000 0.000000
vn 1.000000 0.000000 0.000000
vn -1.000000 0.000000 0.000000
vn 1.000000 0.000000 0.000000
vn -1.000000 0.000000 0.000000
vn 1.000000 0.000000 0.000000
vn -1.000000 0.000000 0.000000
vn 1.000000 0.000000 0.000000
vn -1.000000 0.000000 0.000000
vn 1.000000 0.000000 0.000000
vn -1.000000 0.000000 0.000000
vn 1.000000 0.000000 0.000000
vn -1.000000 0.000000 0.000000
vn 1.000000 0.000000 0.000000
vn -1.000000 0.000000 0.000000
vn 1.000000 0.000000 0.000000
vn -1.000000 0.000000 0.000000
vn 1.000000 0.000000 0.000000
vn -1.000000 0.000000 0.000000
vn 1.000000 0.000000 0.000000
vn -1.000000 0.000000 0.000000
vn 1.000000 0.000000 0.000000
vn -1.000000 0.000000 0.000000
vn 1.000000 0.000000 0.000000
vn -1.000000 0.000000 0.000000
vn 1.000000 0.000000 0.000000
vn -1.000000 0.000000 0.000000
vn 1.000000 0.000000 0.000000
vn -1.000000 0.000000 0.000000
vn 1.000000 0.000000 0.000000
vn -1.000000 0.000000 0.000000
vn 1.000000 0.000000 0.000000
vn -1.000000 0.000000 0.000000
vn 1.000000 0.000000 0.000000
vn -1.000000 0.000000 0.000000
vn 1.000000 0.000000 0.000000
vn -1.000000 0.000000 0.000000
vn 1.000000 0.000000 0.000000
vn -1.000000 0.000000 0.000000
vn 1.000000 0.000000 0.000000
vn 1.000000 0.000000 0.000000
vn 1.000000 0.000000 0.000000
vn -1.000000 0.000000 0.000000
vn -1.000000 0.000000 0.000000
vn -1.000000 0.000000 0.000000
vn 1.000000 0.000000 0.000000
vn 1.000000 0.000000 0.000000
vn 1.000000 0.000000 0.000000
vn -1.000000 0.000000 0.000000
vn -1.000000 0.000000 0.000000
vn -1.000000 0.000000 0.000000
vn 1.000000 0.000000 0.000000
vn 1.000000 0.000000 0.000000
vn 1.000000 0.000000 0.000000
vn 1.000000 0.000000 0.000000
vn -1.000000 0.000000 0.000000
vn -1.000000 0.000000 0.000000
vn -1.000000 0.000000 0.000000
vn -1.000000 0.000000 0.000000
vn 1.000000 0.000000 0.000000
vn 1.000000 0.000000 0.000000
vn 1.000000 0.000000 0.000000
vn -1.000000 0.000000 0.000000
vn -1.000000 0.000000 0.000000
vn -1.000000 0.000000 0.000000
vn 1.000000 0.000000 0.000000
vn 1.000000 0.000000 0.000000
vn 1.000000 0.000000 0.000000
vn -1.000000 0.000000 0.000000
vn -1.000000 0.000000 0.000000
vn -1.000000 0.000000 0.000000
f 5/5/5 7/7/7 3/3/3
f 3/3/3 7/7/7 1/1/1
f 3/3/3 1/1/1 317/317/317
f 317/317/317 1/1/1 147/147/147
f 317/317/317 147/147/147 316/316/316
f 316/316/316 147/147/147 143/143/143
f 316/316/316 143/143/143 315/315/315
f 315/315/315 143/143/143 139/139/139
f 315/315/315 139/139/139 311/311/311
f 311/311/311 139/139/139 135/135/135
f 311/311/311 135/135/135 310/310/310
f 310/310/310 135/135/135 131/131/131
f 310/310/310 131/131/131 309/309/309
f 309/309/309 131/131/131 127/127/127
f 309/309/309 127/127/127 304/304/304
f 304/304/304 127/127/127 123/123/123
f 304/304/304 123/123/123 303/303/303
f 303/303/303 123/123/123 119/119/119
f 303/303/303 119/119/119 302/302/302
f 302/302/302 119/119/119 115/115/115
f 302/302/302 115/115/115 301/301/301
f 301/301/301 115/115/115 111/111/111
f 301/301/301 111/111/111 96/96/96
f 96/96/96 111/111/111 107/107/107
f 96/96/96 107/107/107 95/95/95
f 95/95/95 107/107/107 103/103/103
f 95/95/95 103/103/103 94/94/94
f 94/94/94 103/103/103 101/101/101
f 94/94/94 101/101/101 93/93/93
f 93/93/93 101/101/101 91/91/91
f 19/19/19 20/20/20 17/17/17
f 17/17/17 20/20/20 9/9/9
f 17/17/17 9/9/9 287/287/287
f 287/287/287 9/9/9 12/12/12
f 287/287/287 12/12/12 285/285/285
f 285/285/285 12/12/12 11/11/11
f 285/285/285 11/11/11 283/283/283
f 283/283/283 11/11/11 10/10/10
f 283/283/283 10/10/10 281/281/281
f 281/281/281 10/10/10 297/297/297
f 281/281/281 297/297/297 279/279/279
f 279/279/279 297/297/297 296/296/296
f 279/279/279 296/296/296 277/277/277
f 277/277/277 296/296/296 295/295/295
f 277/277/277 295/295/295 275/275/275
f 275/275/275 295/295/295 291/291/291
f 275/275/275 291/291/291 273/273/273
f 273/273/273 291/291/291 290/290/290
f 273/273/273 290/290/290 271/271/271
f 271/271/271 290/290/290 289/289/289
f 271/271/271 289/289/289 269/269/269
f 269/269/269 289/289/289 81/81/81
f 269/269/269 81/81/81 267/267/267
f 267/267/267 81/81/81 80/80/80
f 267/267/267 80/80/80 265/265/265
f 265/265/265 80/80/80 79/79/79
f 265/265/265 79/79/79 88/88/88
f 88/88/88 79/79/79 78/78/78
f 88/88/88 78/78/78 87/87/87
f 87/87/87 78/78/78 77/77/77
f 21/21/21 19/19/19 29/29/29
f 29/29/29 19/19/19 17/17/17
f 29/29/29 17/17/17 263/263/263
f 263/263/263 17/17/17 287/287/287
f 263/263/263 287/287/287 261/261/261
f 261/261/261 287/287/287 285/285/285
f 261/261/261 285/285/285 259/259/259
f 259/259/259 285/285/285 283/283/283
f 259/259/259 283/283/283 257/257/257
f 257/257/257 283/283/283 281/281/281
f 257/257/257 281/281/281 255/255/255
f 255/255/255 281/281/281 279/279/279
f 255/255/255 279/279/279 253/253/253
f 253/253/253 279/279/279 277/277/277
f 253/253/253 277/277/277 251/251/251
f 251/251/251 277/277/277 275/275/275
f 251/251/251 275/275/275 249/249/249
f 249/249/249 275/275/275 273/273/273
f 249/249/249 273/273/273 247/247/247
f 247/247/247 273/273/273 271/271/271
f 247/247/247 271/271/271 245/245/245
f 245/245/245 271/271/271 269/269/269
f 245/245/245 269/269/269 243/243/243
f 243/243/243 269/269/269 267/267/267
f 243/243/243 267/267/267 241/241/241
f 241/241/241 267/267/267 265/265/265
f 241/241/241 265/265/265 75/75/75
f 75/75/75 265/265/265 88/88/88
f 22/22/22 21/21/21 31/31/31
f 31/31/31 21/21/21 29/29/29
f 31/31/31 29/29/29 239/239/239
f 239/239/239 29/29/29 263/263/263
f 239/239/239 263/263/263 237/237/237
f 237/237/237 263/263/263 261/261/261
f 237/237/237 261/261/261 235/235/235
f 235/235/235 261/261/261 259/259/259
f 235/235/235 259/259/259 233/233/233
f 233/233/233 259/259/259 257/257/257
f 233/233/233 257/257/257 231/231/231
f 231/231/231 257/257/257 255/255/255
f 231/231/231 255/255/255 229/229/229
f 229/229/229 255/255/255 253/253/253
f 229/229/229 253/253/253 227/227/227
f 227/227/227 253/253/253 251/251/251
f 227/227/227 251/251/251 225/225/225
f 225/225/225 251/251/251 249/249/249
f 225/225/225 249/249/249 223/223/223
f 223/223/223 249/249/249 247/247/247
f 223/223/223 247/247/247 221/221/221
f 221/221/221 247/247/247 245/245/245
f 221/221/221 245/245/245 219/219/219
f 219/219/219 245/245/245 243/243/243
f 219/219/219 243/243/243 217/217/217
f 217/217/217 243/243/243 241/241/241
f 217/217/217 241/241/241 73/73/73
f 73/73/73 241/241/241 75/75/75
f 73/73/73 75/75/75 71/71/71
f 71/71/71 75/75/75 69/69/69
f 37/37/37 23/23/23 35/35/35
f 35/35/35 23/23/23 33/33/33
f 35/35/35 33/33/33 201/201/201
f 201/201/201 33/33/33 215/215/215
f 201/201/201 215/215/215 199/199/199
f 199/199/199 215/215/215 213/213/213
f 199/199/199 213/213/213 197/197/197
f 197/197/197 213/213/213 211/211/211
f 197/197/197 211/211/211 191/191/191
f 191/191/191 211/211/211 193/193/193
f 191/191/191 193/193/193 189/189/189
f 189/189/189 193/193/193 192/192/192
f 189/189/189 192/192/192 187/187/187
f 187/187/187 192/192/192 209/209/209
f 187/187/187 209/209/209 185/185/185
f 185/185/185 209/209/209 207/207/207
f 185/185/185 207/207/207 181/181/181
f 181/181/181 207/207/207 182/182/182
f 181/181/181 182/182/182 179/179/179
f 179/179/179 182/182/182 205/205/205
f 179/179/179 205/205/205 177/177/177
f 177/177/177 205/205/205 203/203/203
f 177/177/177 203/203/203 59/59/59
f 59/59/59 203/203/203 61/61/61
f 59/59/59 61/61/61 175/175/175
f 175/175/175 61/61/61 60/60/60
f 175/175/175 60/60/60 57/57/57
f 57/57/57 60/60/60 58/58/58
f 57/57/57 58/58/58 56/56/56
f 56/56/56 58/58/58 55/55/55
f 38/38/38 37/37/37 43/43/43
f 43/43/43 37/37/37 35/35/35
f 43/43/43 35/35/35 173/173/173
f 173/173/173 35/35/35 201/201/201
f 173/173/173 201/201/201 171/171/171
f 171/171/171 201/201/201 199/199/199
f 171/171/171 199/199/199 169/169/169
f 169/169/169 199/199/199 197/197/197
f 169/169/169 197/197/197 167/167/167
f 167/167/167 197/197/197 191/191/191
f 167/167/167 191/191/191 165/165/165
f 165/165/165 191/191/191 189/189/189
f 165/165/165 189/189/189 163/163/163
f 163/163/163 189/189/189 187/187/187
f 163/163/163 187/187/187 161/161/161
f 161/161/161 187/187/187 185/185/185
f 161/161/161 185/185/185 159/159/159
f 159/159/159 185/185/185 181/181/181
f 159/159/159 181/181/181 157/157/157
f 157/157/157 181/181/181 179/179/179
f 157/157/157 179/179/179 155/155/155
f 155/155/155 179/179/179 177/177/177
f 155/155/155 177/177/177 153/153/153
f 153/153/153 177/177/177 59/59/59
f 153/153/153 59/59/59 151/151/151
f 151/151/151 59/59/59 175/175/175
f 151/151/151 175/175/175 53/53/53
f 53/53/53 175/175/175 57/57/57
f 8/8/8 6/6/6 2/2/2
f 2/2/2 6/6/6 4/4/4
f 2/2/2 4/4/4 148/148/148
f 148/148/148 4/4/4 320/320/320
f 148/148/148 320/320/320 144/144/144
f 144/144/144 320/320/320 319/319/319
f 144/144/144 319/319/319 140/140/140
f 140/140/140 319/319/319 318/318/318
f 140/140/140 318/318/318 136/136/136
f 136/136/136 318/318/318 314/314/314
f 136/136/136 314/314/314 132/132/132
f 132/132/132 314/314/314 313/313/313
f 132/132/132 313/313/313 128/128/128
f 128/128/128 313/313/313 312/312/312
f 128/128/128 312/312/312 124/124/124
f 124/124/124 312/312/312 308/308/308
f 124/124/124 308/308/308 120/120/120
f 120/120/120 308/308/308 307/307/307
f 120/120/120 307/307/307 116/116/116
f 116/116/116 307/307/307 306/306/306
f 116/116/116 306/306/306 112/112/112
f 112/112/112 306/306/306 305/305/305
f 112/112/112 305/305/305 108/108/108
f 108/108/108 305/305/305 100/100/100
f 108/108/108 100/100/100 104/104/104
f 104/104/104 100/100/100 99/99/99
f 104/104/104 99/99/99 102/102/102
f 102/102/102 99/99/99 97/97/97
f 102/102/102 97/97/97 92/92/92
f 92/92/92 97/97/97 98/98/98
f 24/24/24 25/25/25 13/13/13
f 13/13/13 25/25/25 18/18/18
f 13/13/13 18/18/18 16/16/16
f 16/16/16 18/18/18 288/288/288
f 16/16/16 288/288/288 15/15/15
f 15/15/15 288/288/288 286/286/286
f 15/15/15 286/286/286 14/14/14
f 14/14/14 286/286/286 284/284/284
f 14/14/14 284/284/284 300/300/300
f 300/300/300 284/284/284 282/282/282
f 300/300/300 282/282/282 299/299/299
f 299/299/299 282/282/282 280/280/280
f 299/299/299 280/280/280 298/298/298
f 298/298/298 280/280/280 278/278/278
f 298/298/298 278/278/278 294/294/294
f 294/294/294 278/278/278 276/276/276
f 294/294/294 276/276/276 293/293/293
f 293/293/293 276/276/276 274/274/274
f 293/293/293 274/274/274 292/292/292
f 292/292/292 274/274/274 272/272/272
f 292/292/292 272/272/272 86/86/86
f 86/86/86 272/272/272 270/270/270
f 86/86/86 270/270/270 85/85/85
f 85/85/85 270/270/270 268/268/268
f 85/85/85 268/268/268 84/84/84
f 84/84/84 268/268/268 266/266/266
f 84/84/84 266/266/266 83/83/83
f 83/83/83 266/266/266 89/89/89
f 83/83/83 89/89/89 82/82/82
f 82/82/82 89/89/89 90/90/90
f 25/25/25 26/26/26 18/18/18
f 18/18/18 26/26/26 30/30/30
f 18/18/18 30/30/30 288/288/288
f 288/288/288 30/30/30 264/264/264
f 288/288/288 264/264/264 286/286/286
f 286/286/286 264/264/264 262/262/262
f 286/286/286 262/262/262 284/284/284
f 284/284/284 262/262/262 260/260/260
f 284/284/284 260/260/260 282/282/282
f 282/282/282 260/260/260 258/258/258
f 282/282/282 258/258/258 280/280/280
f 280/280/280 258/258/258 256/256/256
f 280/280/280 256/256/256 278/278/278
f 278/278/278 256/256/256 254/254/254
f 278/278/278 254/254/254 276/276/276
f 276/276/276 254/254/254 252/252/252
f 276/276/276 252/252/252 274/274/274
f 274/274/274 252/252/252 250/250/250
f 274/274/274 250/250/250 272/272/272
f 272/272/272 250/250/250 248/248/248
f 272/272/272 248/248/248 270/270/270
f 270/270/270 248/248/248 246/246/246
f 270/270/270 246/246/246 268/268/268
f 268/268/268 246/246/246 244/244/244
f 268/268/268 244/244/244 266/266/266
f 266/266/266 244/244/244 242/242/242
f 266/266/266 242/242/242 89/89/89
f 89/89/89 242/242/242 76/76/76
f 26/26/26 27/27/27 30/30/30
f 30/30/30 27/27/27 32/32/32
f 30/30/30 32/32/32 264/264/264
f 264/264/264 32/32/32 240/240/240
f 264/264/264 240/240/240 262/262/262
f 262/262/262 240/240/240 238/238/238
f 262/262/262 238/238/238 260/260/260
f 260/260/260 238/238/238 236/236/236
f 260/260/260 236/236/236 258/258/258
f 258/258/258 236/236/236 234/234/234
f 258/258/258 234/234/234 256/256/256
f 256/256/256 234/234/234 232/232/232
f 256/256/256 232/232/232 254/254/254
f 254/254/254 232/232/232 230/230/230
f 254/254/254 230/230/230 252/252/252
f 252/252/252 230/230/230 228/228/228
f 252/252/252 228/228/228 250/250/250
f 250/250/250 228/228/228 226/226/226
f 250/250/250 226/226/226 248/248/248
f 248/248/248 226/226/226 224/224/224
f 248/248/248 224/224/224 246/246/246
f 246/246/246 224/224/224 222/222/222
f 246/246/246 222/222/222 244/244/244
f 244/244/244 222/222/222 220/220/220
f 244/244/244 220/220/220 242/242/242
f 242/242/242 220/220/220 218/218/218
f 242/242/242 218/218/218 76/76/76
f 76/76/76 218/218/218 74/74/74
f 76/76/76 74/74/74 70/70/70
f 70/70/70 74/74/74 72/72/72
f 28/28/28 40/40/40 34/34/34
f 34/34/34 40/40/40 36/36/36
f 34/34/34 36/36/36 216/216/216
f 216/216/216 36/36/36 202/202/202
f 216/216/216 202/202/202 214/214/214
f 214/214/214 202/202/202 200/200/200
f 214/214/214 200/200/200 212/212/212
f 212/212/212 200/200/200 198/198/198
f 212/212/212 198/198/198 196/196/196
f 196/196/196 198/198/198 194/194/194
f 196/196/196 194/194/194 195/195/195
f 195/195/195 194/194/194 190/190/190
f 195/195/195 190/190/190 210/210/210
f 210/210/210 190/190/190 188/188/188
f 210/210/210 188/188/188 208/208/208
f 208/208/208 188/188/188 186/186/186
f 208/208/208 186/186/186 184/184/184
f 184/184/184 186/186/186 183/183/183
f 184/184/184 183/183/183 206/206/206
f 206/206/206 183/183/183 180/180/180
f 206/206/206 180/180/180 204/204/204
f 204/204/204 180/180/180 178/178/178
f 204/204/204 178/178/178 68/68/68
f 68/68/68 178/178/178 66/66/66
f 68/68/68 66/66/66 67/67/67
f 67/67/67 66/66/66 176/176/176
f 67/67/67 176/176/176 63/63/63
f 63/63/63 176/176/176 64/64/64
f 63/63/63 64/64/64 62/62/62
f 62/62/62 64/64/64 65/65/65
f 40/40/40 41/41/41 36/36/36
f 36/36/36 41/41/41 44/44/44
f 36/36/36 44/44/44 202/202/202
f 202/202/202 44/44/44 174/174/174
f 202/202/202 174/174/174 200/200/200
f 200/200/200 174/174/174 172/172/172
f 200/200/200 172/172/172 198/198/198
f 198/198/198 172/172/172 170/170/170
f 198/198/198 170/170/170 194/194/194
f 194/194/194 170/170/170 168/168/168
f 194/194/194 168/168/168 190/190/190
f 190/190/190 168/168/168 166/166/166
f 190/190/190 166/166/166 188/188/188
f 188/188/188 166/166/166 164/164/164
f 188/188/188 164/164/164 186/186/186
f 186/186/186 164/164/164 162/162/162
f 186/186/186 162/162/162 183/183/183
f 183/183/183 162/162/162 160/160/160
f 183/183/183 160/160/160 180/180/180
f 180/180/180 160/160/160 158/158/158
f 180/180/180 158/158/158 178/178/178
f 178/178/178 158/158/158 156/156/156
f 178/178/178 156/156/156 66/66/66
f 66/66/66 156/156/156 154/154/154
f 66/66/66 154/154/154 176/176/176
f 176/176/176 154/154/154 152/152/152
f 176/176/176 152/152/152 64/64/64
f 64/64/64 152/152/152 54/54/54
f 41/41/41 42/42/42 44/44/44
f 44/44/44 42/42/42 46/46/46
f 44/44/44 46/46/46 174/174/174
f 174/174/174 46/46/46 150/150/150
f 174/174/174 150/150/150 172/172/172
f 172/172/172 150/150/150 146/146/146
f 172/172/172 146/146/146 170/170/170
f 170/170/170 146/146/146 142/142/142
f 170/170/170 142/142/142 168/168/168
f 168/168/168 142/142/142 138/138/138
f 168/168/168 138/138/138 166/166/166
f 166/166/166 138/138/138 134/134/134
f 166/166/166 134/134/134 164/164/164
f 164/164/164 134/134/134 130/130/130
f 164/164/164 130/130/130 162/162/162
f 162/162/162 130/130/130 126/126/126
f 162/162/162 126/126/126 160/160/160
f 160/160/160 126/126/126 122/122/122
f 160/160/160 122/122/122 158/158/158
f 158/158/158 122/122/122 118/118/118
f 158/158/158 118/118/118 156/156/156
f 156/156/156 118/118/118 114/114/114
f 156/156/156 114/114/114 154/154/154
f 154/154/154 114/114/114 110/110/110
f 154/154/154 110/110/110 152/152/152
f 152/152/152 110/110/110 106/106/106
f 152/152/152 106/106/106 54/54/54
f 54/54/54 106/106/106 52/52/52
f 54/54/54 52/52/52 48/48/48
f 48/48/48 52/52/52 50/50/50
f 23/23/23 22/22/22 33/33/33
f 33/33/33 22/22/22 31/31/31
f 33/33/33 31/31/31 215/215/215
f 215/215/215 31/31/31 239/239/239
f 215/215/215 239/239/239 213/213/213
f 213/213/213 239/239/239 237/237/237
f 213/213/213 237/237/237 211/211/211
f 211/211/211 237/237/237 235/235/235
f 211/211/211 235/235/235 193/193/193
f 193/193/193 235/235/235 233/233/233
f 193/193/193 233/233/233 192/192/192
f 192/192/192 233/233/233 231/231/231
f 192/192/192 231/231/231 209/209/209
f 209/209/209 231/231/231 229/229/229
f 209/209/209 229/229/229 207/207/207
f 207/207/207 229/229/229 227/227/227
f 207/207/207 227/227/227 182/182/182
f 182/182/182 227/227/227 225/225/225
f 182/182/182 225/225/225 205/205/205
f 205/205/205 225/225/225 223/223/223
f 205/205/205 223/223/223 203/203/203
f 203/203/203 223/223/223 221/221/221
f 203/203/203 221/221/221 61/61/61
f 61/61/61 221/221/221 219/219/219
f 61/61/61 219/219/219 60/60/60
f 60/60/60 219/219/219 217/217/217
f 60/60/60 217/217/217 58/58/58
f 58/58/58 217/217/217 73/73/73
f 39/39/39 38/38/38 45/45/45
f 45/45/45 38/38/38 43/43/43
f 45/45/45 43/43/43 149/149/149
f 149/149/149 43/43/43 173/173/173
f 149/149/149 173/173/173 145/145/145
f 145/145/145 173/173/173 171/171/171
f 145/145/145 171/171/171 141/141/141
f 141/141/141 171/171/171 169/169/169
f 141/141/141 169/169/169 137/137/137
f 137/137/137 169/169/169 167/167/167
f 137/137/137 167/167/167 133/133/133
f 133/133/133 167/167/167 165/165/165
f 133/133/133 165/165/165 129/129/129
f 129/129/129 165/165/165 163/163/163
f 129/129/129 163/163/163 125/125/125
f 125/125/125 163/163/163 161/161/161
f 125/125/125 161/161/161 121/121/121
f 121/121/121 161/161/161 159/159/159
f 121/121/121 159/159/159 117/117/117
f 117/117/117 159/159/159 157/157/157
f 117/117/117 157/157/157 113/113/113
f 113/113/113 157/157/157 155/155/155
f 113/113/113 155/155/155 109/109/109
f 109/109/109 155/155/155 153/153/153
f 109/109/109 153/153/153 105/105/105
f 105/105/105 153/153/153 151/151/151
f 105/105/105 151/151/151 51/51/51
f 51/51/51 151/151/151 53/53/53
f 51/51/51 53/53/53 49/49/49
f 49/49/49 53/53/53 47/47/47
f 7/7/7 39/39/39 1/1/1
f 1/1/1 39/39/39 45/45/45
f 1/1/1 45/45/45 147/147/147
f 147/147/147 45/45/45 149/149/149
f 147/147/147 149/149/149 143/143/143
f 143/143/143 149/149/149 145/145/145
f 143/143/143 145/145/145 139/139/139
f 139/139/139 145/145/145 141/141/141
f 139/139/139 141/141/141 135/135/135
f 135/135/135 141/141/141 137/137/137
f 135/135/135 137/137/137 131/131/131
f 131/131/131 137/137/137 133/133/133
f 131/131/131 133/133/133 127/127/127
f 127/127/127 133/133/133 129/129/129
f 127/127/127 129/129/129 123/123/123
f 123/123/123 129/129/129 125/125/125
f 123/123/123 125/125/125 119/119/119
f 119/119/119 125/125/125 121/121/121
f 119/119/119 121/121/121 115/115/115
f 115/115/115 121/121/121 117/117/117
f 115/115/115 117/117/117 111/111/111
f 111/111/111 117/117/117 113/113/113
f 111/111/111 113/113/113 107/107/107
f 107/107/107 113/113/113 109/109/109
f 107/107/107 109/109/109 103/103/103
f 103/103/103 109/109/109 105/105/105
f 103/103/103 105/105/105 101/101/101
f 101/101/101 105/105/105 51/51/51
f 27/27/27 28/28/28 32/32/32
f 32/32/32 28/28/28 34/34/34
f 32/32/32 34/34/34 240/240/240
f 240/240/240 34/34/34 216/216/216
f 240/240/240 216/216/216 238/238/238
f 238/238/238 216/216/216 214/214/214
f 238/238/238 214/214/214 236/236/236
f 236/236/236 214/214/214 212/212/212
f 236/236/236 212/212/212 234/234/234
f 234/234/234 212/212/212 196/196/196
f 234/234/234 196/196/196 232/232/232
f 232/232/232 196/196/196 195/195/195
f 232/232/232 195/195/195 230/230/230
f 230/230/230 195/195/195 210/210/210
f 230/230/230 210/210/210 228/228/228
f 228/228/228 210/210/210 208/208/208
f 228/228/228 208/208/208 226/226/226
f 226/226/226 208/208/208 184/184/184
f 226/226/226 184/184/184 224/224/224
f 224/224/224 184/184/184 206/206/206
f 224/224/224 206/206/206 222/222/222
f 222/222/222 206/206/206 204/204/204
f 222/222/222 204/204/204 220/220/220
f 220/220/220 204/204/204 68/68/68
f 220/220/220 68/68/68 218/218/218
f 218/218/218 68/68/68 67/67/67
f 218/218/218 67/67/67 74/74/74
f 74/74/74 67/67/67 63/63/63
f 42/42/42 8/8/8 46/46/46
f 46/46/46 8/8/8 2/2/2
f 46/46/46 2/2/2 150/150/150
f 150/150/150 2/2/2 148/148/148
f 150/150/150 148/148/148 146/146/146
f 146/146/146 148/148/148 144/144/144
f 146/146/146 144/144/144 142/142/142
f 142/142/142 144/144/144 140/140/140
f 142/142/142 140/140/140 138/138/138
f 138/138/138 140/140/140 136/136/136
f 138/138/138 136/136/136 134/134/134
f 134/134/134 136/136/136 132/132/132
f 134/134/134 132/132/132 130/130/130
f 130/130/130 132/132/132 128/128/128
f 130/130/130 128/128/128 126/126/126
f 126/126/126 128/128/128 124/124/124
f 126/126/126 124/124/124 122/122/122
f 122/122/122 124/124/124 120/120/120
f 122/122/122 120/120/120 118/118/118
f 118/118/118 120/120/120 116/116/116
f 118/118/118 116/116/116 114/114/114
f 114/114/114 116/116/116 112/112/112
f 114/114/114 112/112/112 110/110/110
f 110/110/110 112/112/112 108/108/108
f 110/110/110 108/108/108 106/106/106
f 106/106/106 108/108/108 104/104/104
f 106/106/106 104/104/104 52/52/52
f 52/52/52 104/104/104 102/102/102
