# shutters converted from Panda3D bam (world transforms applied)
mtllib shutters.mtl
o house-front-door-diffuse
usemtl house-front-door-diffuse
v 1.479683 2.000010 8.000099
v 1.479683 1.945399 8.646456
v 1.479683 1.945399 8.000099
v 1.309559 2.000010 8.000099
v 1.150889 2.000010 8.000099
v 1.309559 2.000010 8.312020
v 1.479683 1.945399 7.169990
v 1.479683 2.000010 8.000099
v 1.479683 1.945399 8.000099
v 1.150889 1.945399 7.169990
v 1.150889 2.000010 8.000099
v 1.150889 2.000010 7.169987
v 1.479683 1.945399 7.613669
v 1.150889 1.945399 7.559100
v 1.150889 1.945399 7.613669
v 1.479683 1.912483 7.613669
v 1.479683 1.945399 7.613669
v 1.150889 1.945399 7.613669
v 1.150889 1.945399 7.559100
v 1.479847 1.945399 7.559100
v 1.479683 1.912483 7.559100
v 1.127351 1.912483 7.613669
v 1.127351 1.945399 7.559100
v 1.127351 1.912483 7.559100
v 1.479683 1.912483 7.559100
v 1.479683 1.945399 7.613669
v 1.479683 1.912483 7.613669
v 1.150889 1.945399 7.224559
v 1.479683 1.945399 7.169990
v 1.150889 1.945399 7.169990
v 1.479683 1.912483 8.000099
v 1.479683 1.945399 8.000099
v 1.150889 1.945399 8.000099
v 1.150889 1.945399 7.945530
v 1.479683 1.945399 7.945530
v 1.479683 1.912483 7.945530
v 1.479683 1.945399 8.000099
v 1.150889 1.945399 7.945530
v 1.150889 1.945399 8.000099
v 1.127351 1.912483 8.000099
v 1.127351 1.945399 7.945530
v 1.127351 1.912483 7.945530
v 1.479683 1.912483 7.945530
v 1.479683 1.945399 8.000099
v 1.479683 1.912483 8.000099
v 1.150889 1.945399 7.224559
v 1.127351 1.945399 7.224559
v 1.127351 1.912483 7.224559
v 1.150889 1.945399 7.169990
v 1.479683 1.945399 7.169990
v 1.479683 1.912483 7.169990
v 1.479683 1.912483 7.945530
v 1.127351 1.912483 8.000099
v 1.127351 1.912483 7.945530
v 1.127351 1.912483 7.224559
v 1.127351 1.945399 7.169990
v 1.127351 1.912483 7.169990
v 1.479683 1.912483 7.169990
v 1.479683 1.945399 7.224559
v 1.479683 1.912483 7.224559
v 1.479683 1.912483 7.169990
v 1.127351 1.912483 7.224559
v 1.127351 1.912483 7.169990
v 1.150889 1.945399 7.613669
v 1.127351 2.000010 7.613669
v 1.127351 1.945399 7.613669
v 1.127351 1.945399 8.000099
v 1.127351 2.000010 7.945530
v 1.150889 1.945399 8.000099
v 1.150889 2.000010 7.945530
v 1.150889 2.000010 8.000099
v 1.127351 2.000010 7.169990
v 1.150889 2.000010 7.224559
v 1.150889 2.000010 7.169987
v 1.127351 2.000010 8.000099
v 1.150889 2.000010 7.945530
v 1.127351 2.000010 7.945530
v 1.127351 2.000010 7.613669
v 1.150889 2.000010 7.559100
v 1.127351 2.000010 7.559100
v 1.127351 1.945399 7.945530
v 1.150889 2.000010 7.945530
v 1.150889 1.945399 7.945530
v 1.150889 1.945399 7.224559
v 1.127351 2.000010 7.224559
v 1.127351 1.945399 7.224559
v 1.127351 1.945399 7.613669
v 1.127351 2.000010 7.559100
v 1.127351 1.945399 7.559100
v 1.127351 1.945399 7.224559
v 1.127351 2.000010 7.169990
v 1.150889 1.945399 7.169990
v 1.150889 2.000010 7.224559
v 1.150889 1.945399 7.224559
v 1.127351 1.945399 7.559100
v 1.150889 2.000010 7.559100
v 1.150889 1.945399 7.559100
v 1.150889 1.945399 8.000099
v 1.127351 2.000010 8.000099
v 1.127351 1.945399 8.000099
v 1.150889 1.945399 7.169990
v 1.127351 2.000010 7.169990
v 1.150889 2.000010 7.169987
v 1.309559 1.945441 8.312020
v 1.150889 2.000010 8.000099
v 1.150889 1.945399 8.000099
v 1.309559 1.945441 7.169987
v 1.150889 2.000010 7.169987
v 1.309559 2.000010 7.169988
v 1.479683 2.000010 8.000099
v 1.349812 2.000010 8.391018
v 1.479683 2.000010 8.646457
v 1.479683 2.000010 8.646457
v 1.349812 1.945441 8.391018
v 1.479683 1.945399 8.646456
v 1.479683 1.945399 8.000099
v 1.349812 1.945441 8.391018
v 1.349812 1.945441 8.000099
v 1.479683 1.945399 7.169990
v 1.349812 1.945441 8.000099
v 1.349812 1.945441 7.169987
v 1.479683 1.912483 7.559100
v 1.127351 1.912483 7.613669
v 1.127351 1.912483 7.559100
v 1.309559 2.000010 7.169988
v 1.349812 1.945441 7.169987
v 1.479683 2.000010 7.169987
v 1.479683 1.945399 7.169990
v 1.349812 2.000010 7.169988
v 1.479683 2.000010 7.169987
v 1.309559 1.945441 8.312020
v 1.150889 1.945399 8.000099
v 1.309559 1.945441 8.000099
v 1.150889 1.945399 7.169990
v 1.309559 1.945441 8.000099
v 1.150889 1.945399 8.000099
v 1.150955 1.912483 8.000116
v 1.479683 1.945399 8.646456
v 1.150889 1.945399 8.000099
v 1.479665 1.912483 8.552883
v 1.479683 1.945399 8.646456
v 1.479683 1.912483 8.646456
v 1.479665 1.912483 8.552883
v 1.150955 1.912483 8.000116
v 1.204413 1.912483 8.000099
v 1.479665 1.945399 8.552883
v 1.204413 1.912483 8.000099
v 1.204413 1.945399 8.000099
v 1.479683 2.000010 8.646457
v 1.479683 2.000010 7.169987
v 1.150889 1.945399 8.000099
v 1.479847 1.945399 7.559100
v 1.127351 1.945399 7.613669
v 1.127351 1.912483 7.613669
v 1.127351 1.912483 7.559100
v 1.127351 1.945399 7.559100
v 1.127351 1.945399 7.613669
v 1.479683 1.912483 7.559100
v 1.479847 1.945399 7.559100
v 1.479683 1.945399 7.613669
v 1.479683 1.945399 7.224559
v 1.127351 1.945399 8.000099
v 1.127351 1.912483 8.000099
v 1.127351 1.912483 7.945530
v 1.127351 1.945399 7.945530
v 1.479683 1.945399 7.945530
v 1.479683 1.945399 7.945530
v 1.479683 1.912483 7.224559
v 1.479683 1.945399 7.224559
v 1.127351 1.912483 7.169990
v 1.127351 1.945399 7.169990
v 1.479683 1.912483 8.000099
v 1.479683 1.945399 7.169990
v 1.479683 1.912483 7.224559
v 1.150889 2.000010 7.613669
v 1.127351 2.000010 8.000099
v 1.150889 1.945399 7.945530
v 1.127351 2.000010 7.224559
v 1.150889 2.000010 7.613669
v 1.127351 2.000010 7.945530
v 1.150889 2.000010 7.224559
v 1.127351 2.000010 7.613669
v 1.127351 2.000010 7.224559
v 1.150889 2.000010 7.169987
v 1.127351 2.000010 7.559100
v 1.150889 2.000010 8.000099
v 1.150889 1.945399 7.169990
v 1.127351 1.945399 7.169990
v 1.127351 2.000010 7.169990
v 1.309559 2.000010 8.312020
v 1.309559 1.945441 7.169987
v 1.150889 1.945399 7.169990
v 1.150889 2.000010 7.169987
v 1.349812 2.000010 8.000099
v 1.349812 2.000010 8.391018
v 1.479683 1.945399 8.000099
v 1.479683 1.945399 8.646456
v 1.349812 1.945441 8.391018
v 1.479683 1.945399 8.000099
v 1.479683 1.912483 7.613669
v 1.349812 1.945441 7.169987
v 1.349812 2.000010 7.169988
v 1.479683 2.000010 7.169987
v 1.309559 1.945441 7.169987
v 1.150955 1.912483 8.000116
v 1.479683 1.912483 8.646456
v 1.479683 1.945399 8.646456
v 1.479665 1.945399 8.552883
v 1.479683 1.912483 8.646456
v 1.479665 1.912483 8.552883
v 1.519957 1.945399 8.646456
v 1.519957 2.000010 8.000099
v 1.519957 1.945399 8.000099
v 1.689419 2.000010 8.000099
v 1.689419 2.000010 8.313209
v 1.849367 2.000010 8.000099
v 1.519957 1.945399 7.169990
v 1.519957 2.000010 8.000099
v 1.519957 2.000010 7.169987
v 1.849367 2.000010 8.000099
v 1.849367 1.945399 7.169990
v 1.849367 2.000010 7.169987
v 1.519957 1.945399 7.613669
v 1.849367 1.945399 7.559100
v 1.519793 1.945399 7.559100
v 1.849367 1.945399 7.613669
v 1.519957 1.945399 7.613669
v 1.519957 1.912483 7.613669
v 1.519957 1.912483 7.559100
v 1.519793 1.945399 7.559100
v 1.849367 1.945399 7.559100
v 1.872906 1.945399 7.559100
v 1.872906 1.912483 7.613669
v 1.872906 1.912483 7.559100
v 1.519957 1.945399 7.613669
v 1.519957 1.912483 7.559100
v 1.519957 1.912483 7.613669
v 1.849367 1.945399 7.224559
v 1.519957 1.945399 7.169990
v 1.519957 1.945399 7.224559
v 1.849367 1.945399 8.000099
v 1.519957 1.945399 8.000099
v 1.519957 1.912483 8.000099
v 1.519957 1.912483 7.945530
v 1.519957 1.945399 7.945530
v 1.849367 1.945399 7.945530
v 1.849367 1.945399 8.000099
v 1.519957 1.945399 7.945530
v 1.519957 1.945399 8.000099
v 1.872906 1.945399 7.945530
v 1.872906 1.912483 8.000099
v 1.872906 1.912483 7.945530
v 1.519957 1.945399 8.000099
v 1.519957 1.912483 7.945530
v 1.519957 1.912483 8.000099
v 1.872906 1.912483 7.224559
v 1.872906 1.945399 7.224559
v 1.849367 1.945399 7.224559
v 1.519957 1.912483 7.169990
v 1.519957 1.945399 7.169990
v 1.849367 1.945399 7.169990
v 1.872906 1.912483 8.000099
v 1.519957 1.912483 7.945530
v 1.872906 1.912483 7.945530
v 1.872906 1.945399 7.169990
v 1.872906 1.912483 7.224559
v 1.872906 1.912483 7.169990
v 1.519957 1.945399 7.224559
v 1.519957 1.912483 7.169990
v 1.519957 1.912483 7.224559
v 1.872906 1.912483 7.224559
v 1.519957 1.912483 7.169990
v 1.872906 1.912483 7.169990
v 1.872906 2.000010 7.613669
v 1.872906 1.945399 7.613669
v 1.872906 2.000010 7.945530
v 1.872906 1.945399 8.000099
v 1.849367 1.945399 8.000099
v 1.849367 2.000010 7.945530
v 1.849367 1.945399 7.945530
v 1.872906 2.000010 7.169990
v 1.849367 2.000010 7.224559
v 1.872906 2.000010 7.224559
v 1.849367 2.000010 7.945530
v 1.872906 2.000010 8.000099
v 1.872906 2.000010 7.945530
v 1.849367 2.000010 7.559100
v 1.872906 2.000010 7.613669
v 1.872906 2.000010 7.559100
v 1.849367 2.000010 7.613669
v 1.849367 1.945399 7.559100
v 1.849367 1.945399 7.613669
v 1.849367 2.000010 7.945530
v 1.872906 1.945399 7.945530
v 1.872906 2.000010 7.224559
v 1.872906 2.000010 7.559100
v 1.872906 1.945399 7.613669
v 1.872906 2.000010 7.169990
v 1.872906 1.945399 7.224559
v 1.849367 2.000010 7.224559
v 1.849367 1.945399 7.169990
v 1.849367 1.945399 7.224559
v 1.849367 2.000010 7.559100
v 1.872906 1.945399 7.559100
v 1.849367 1.945399 7.559100
v 1.872906 2.000010 8.000099
v 1.849367 1.945399 8.000099
v 1.872906 1.945399 8.000099
v 1.872906 2.000010 7.169990
v 1.872906 1.945399 7.169990
v 1.689419 1.945441 8.313209
v 1.849367 2.000010 8.000099
v 1.689419 2.000010 8.313209
v 1.689419 1.945441 7.169987
v 1.849367 2.000010 7.169987
v 1.849367 1.945399 7.169990
v 1.519957 2.000010 8.000099
v 1.650018 2.000010 8.390907
v 1.650018 2.000010 8.000099
v 1.519957 2.000010 8.646457
v 1.650018 1.945441 8.390907
v 1.650018 2.000010 8.390907
v 1.519957 1.945399 8.000099
v 1.650018 1.945441 8.390907
v 1.519957 1.945399 8.646456
v 1.519957 1.945399 7.169990
v 1.650018 1.945441 8.000099
v 1.519957 1.945399 8.000099
v 1.872906 1.912483 7.613669
v 1.519957 1.912483 7.559100
v 1.872906 1.912483 7.559100
v 1.689419 2.000010 7.169988
v 1.519957 2.000010 7.169987
v 1.650018 1.945441 7.169987
v 1.519957 1.945399 7.169990
v 1.650018 2.000010 7.169988
v 1.519957 2.000010 7.169987
v 1.689419 1.945441 8.313209
v 1.689419 1.945441 8.000099
v 1.849367 1.945399 8.000099
v 1.849367 1.945399 7.169990
v 1.689419 1.945441 8.000099
v 1.689419 1.945441 7.169987
v 1.848684 1.945399 8.000116
v 1.519957 1.912483 8.646456
v 1.848684 1.912483 8.000116
v 1.519957 1.945399 8.646456
v 1.519975 1.912483 8.552883
v 1.519957 1.912483 8.646456
v 1.848684 1.912483 8.000116
v 1.519975 1.912483 8.552883
v 1.795227 1.912483 8.000099
v 1.795227 1.912483 8.000099
v 1.519975 1.945399 8.552883
v 1.795227 1.945399 8.000099
v 1.519957 2.000010 8.646457
v 1.519957 1.945399 8.000099
v 1.849367 1.945399 8.000099
v 1.849367 1.945399 7.613669
v 1.872906 1.912483 7.613669
v 1.872906 1.945399 7.559100
v 1.872906 1.912483 7.559100
v 1.519957 1.945399 7.613669
v 1.519793 1.945399 7.559100
v 1.519957 1.912483 7.559100
v 1.849367 1.945399 7.169990
v 1.872906 1.912483 8.000099
v 1.872906 1.945399 8.000099
v 1.872906 1.912483 7.945530
v 1.849367 1.945399 7.945530
v 1.519957 1.945399 7.945530
v 1.519957 1.945399 7.224559
v 1.519957 1.912483 7.224559
v 1.872906 1.912483 7.169990
v 1.519957 1.912483 8.000099
v 1.519957 1.945399 7.169990
v 1.519957 1.912483 7.224559
v 1.849367 2.000010 7.613669
v 1.872906 2.000010 8.000099
v 1.849367 2.000010 8.000099
v 1.849367 2.000010 7.169987
v 1.849367 2.000010 7.613669
v 1.849367 2.000010 7.559100
v 1.872906 2.000010 7.945530
v 1.849367 2.000010 7.224559
v 1.872906 2.000010 7.613669
v 1.872906 2.000010 7.224559
v 1.849367 2.000010 7.169987
v 1.872906 2.000010 7.559100
v 1.849367 2.000010 8.000099
v 1.849367 1.945399 7.169990
v 1.849367 2.000010 7.169987
v 1.872906 2.000010 7.169990
v 1.849367 1.945399 8.000099
v 1.689419 1.945441 7.169987
v 1.689419 2.000010 7.169988
v 1.849367 2.000010 7.169987
v 1.519957 2.000010 8.646457
v 1.519957 1.945399 8.646456
v 1.519957 1.945399 8.000099
v 1.650018 1.945441 8.000099
v 1.650018 1.945441 8.390907
v 1.650018 1.945441 7.169987
v 1.519957 1.912483 7.613669
v 1.519957 2.000010 7.169987
v 1.650018 2.000010 7.169988
v 1.650018 1.945441 7.169987
v 1.849367 1.945399 8.000099
v 1.848684 1.945399 8.000116
v 1.519957 1.945399 8.646456
v 1.519957 1.912483 8.646456
v 1.519975 1.945399 8.552883
v 1.519957 1.912483 8.646456
v 1.519975 1.912483 8.552883
v 3.800000 1.000000 4.799494
v 3.620089 0.945431 4.799497
v 3.800000 0.945389 4.799494
v 3.379725 1.000000 4.799497
v 3.199729 1.000000 4.199703
v 3.199729 1.000000 4.799497
v 3.199729 0.945389 4.799494
v 3.199729 1.000000 4.199703
v 3.199729 0.945389 4.199703
v 3.800000 0.945389 4.799494
v 3.620089 0.945431 4.199703
v 3.799999 0.945389 4.199703
v 3.800000 1.000000 4.799494
v 3.799999 0.945389 4.199703
v 3.799999 1.000000 4.199703
v 3.620089 1.000000 4.199703
v 3.800000 1.000000 4.799494
v 3.799999 1.000000 4.199703
v 3.579771 1.000000 4.799497
v 3.419962 0.945431 4.799497
v 3.579771 0.945431 4.799497
v 3.579771 0.945431 4.199703
v 3.419962 0.945431 4.799497
v 3.419962 0.945431 4.199703
v 3.419962 1.000000 4.799497
v 3.579771 1.000000 4.199703
v 3.419962 1.000000 4.199703
v 3.379725 0.945431 4.199703
v 3.199729 0.945389 4.799494
v 3.199729 0.945389 4.199703
v 3.379725 0.945431 4.799497
v 3.199729 1.000000 4.799497
v 3.199729 0.945389 4.799494
v 3.199729 0.912473 4.528063
v 3.823538 0.912473 4.473494
v 3.823538 0.912473 4.528063
v 3.799999 0.945389 4.473494
v 3.199729 0.945389 4.528063
v 3.799999 0.945389 4.528063
v 3.199729 0.912473 4.473494
v 3.199729 0.945389 4.473494
v 3.799999 0.945389 4.473494
v 3.823538 0.912473 4.473494
v 3.823538 0.945389 4.528063
v 3.823538 0.912473 4.528063
v 3.199729 0.912473 4.528063
v 3.199729 0.945389 4.473494
v 3.199729 0.912473 4.473494
v 3.823538 0.912473 4.528063
v 3.823538 0.945389 4.528063
v 3.799999 0.945389 4.528063
v 3.199729 0.912473 4.254272
v 3.823538 0.912473 4.199703
v 3.823538 0.912473 4.254272
v 3.799999 0.945389 4.199703
v 3.199729 0.945389 4.254272
v 3.799999 0.945389 4.254272
v 3.199729 0.912473 4.199703
v 3.199729 0.945389 4.199703
v 3.799999 0.945389 4.199703
v 3.823538 0.912473 4.199703
v 3.823538 0.945389 4.254272
v 3.823538 0.912473 4.254272
v 3.199729 0.912473 4.254272
v 3.199729 0.945389 4.199703
v 3.199729 0.912473 4.199703
v 3.823538 0.912473 4.254272
v 3.823538 0.945389 4.254272
v 3.799999 0.945389 4.254272
v 3.199729 0.912473 4.799494
v 3.823538 0.912473 4.744925
v 3.823538 0.912473 4.799494
v 3.800000 0.945389 4.744925
v 3.199729 0.945389 4.799494
v 3.800000 0.945389 4.799494
v 3.199729 0.912473 4.744925
v 3.199729 0.945389 4.744925
v 3.800000 0.945389 4.744925
v 3.823538 0.912473 4.744925
v 3.823538 0.945389 4.799494
v 3.823538 0.912473 4.799494
v 3.199729 0.912473 4.799494
v 3.199729 0.945389 4.744925
v 3.199729 0.912473 4.744925
v 3.823538 0.912473 4.799494
v 3.823538 0.945389 4.799494
v 3.800000 0.945389 4.799494
v 3.799999 0.945389 4.473494
v 3.823538 1.000000 4.473494
v 3.823538 0.945389 4.473494
v 3.823538 0.945389 4.199703
v 3.823538 1.000000 4.254272
v 3.823538 1.000000 4.744925
v 3.800000 1.000000 4.799494
v 3.823538 1.000000 4.799494
v 3.823538 1.000000 4.199703
v 3.799999 1.000000 4.254272
v 3.823538 1.000000 4.254272
v 3.823538 1.000000 4.473494
v 3.799999 1.000000 4.528063
v 3.823538 1.000000 4.528063
v 3.823538 0.945389 4.254272
v 3.799999 1.000000 4.254272
v 3.799999 0.945389 4.254272
v 3.823538 1.000000 4.744925
v 3.823538 0.945389 4.744925
v 3.823538 0.945389 4.473494
v 3.823538 1.000000 4.528063
v 3.823538 0.945389 4.744925
v 3.823538 1.000000 4.799494
v 3.823538 0.945389 4.528063
v 3.799999 1.000000 4.528063
v 3.799999 0.945389 4.528063
v 3.823538 1.000000 4.199703
v 3.823538 0.945389 4.199703
v 3.823538 0.945389 4.799494
v 3.800000 1.000000 4.799494
v 3.800000 0.945389 4.799494
v 3.620089 0.945431 4.199703
v 3.799999 1.000000 4.199703
v 3.799999 0.945389 4.199703
v 3.579771 1.000000 4.199703
v 3.419962 0.945431 4.199703
v 3.419962 1.000000 4.199703
v 3.199729 1.000000 4.199703
v 3.379725 0.945431 4.199703
v 3.199729 0.945389 4.199703
v 3.620089 1.000000 4.799497
v 3.379725 1.000000 4.199703
v 3.199729 1.000000 4.799497
v 3.620089 0.945431 4.799497
v 3.800000 0.945389 4.799494
v 3.620089 1.000000 4.799497
v 3.419962 1.000000 4.799497
v 3.579771 0.945431 4.799497
v 3.579771 1.000000 4.799497
v 3.379725 0.945431 4.799497
v 3.379725 0.945431 4.799497
v 3.379725 1.000000 4.799497
v 3.199729 1.000000 4.799497
v 3.199729 0.912473 4.473494
v 3.199729 0.945389 4.473494
v 3.823538 0.945389 4.473494
v 3.823538 0.912473 4.473494
v 3.199729 0.945389 4.528063
v 3.199729 0.945389 4.528063
v 3.199729 0.912473 4.528063
v 3.199729 0.912473 4.199703
v 3.199729 0.945389 4.199703
v 3.823538 0.912473 4.199703
v 3.199729 0.945389 4.254272
v 3.199729 0.945389 4.254272
v 3.199729 0.912473 4.254272
v 3.199729 0.912473 4.744925
v 3.199729 0.945389 4.744925
v 3.823538 0.912473 4.744925
v 3.199729 0.945389 4.799494
v 3.199729 0.945389 4.799494
v 3.199729 0.912473 4.799494
v 3.799999 1.000000 4.473494
v 3.823538 1.000000 4.199703
v 3.800000 1.000000 4.744925
v 3.799999 1.000000 4.199703
v 3.799999 1.000000 4.473494
v 3.823538 1.000000 4.254272
v 3.800000 1.000000 4.744925
v 3.823538 1.000000 4.473494
v 3.823538 1.000000 4.744925
v 3.823538 1.000000 4.528063
v 3.799999 1.000000 4.199703
v 3.823538 1.000000 4.799494
v 3.620089 1.000000 4.199703
v 3.579771 0.945431 4.199703
v 3.379725 1.000000 4.199703
v 3.309953 1.945441 8.312209
v 3.150803 1.945399 8.000099
v 3.309953 1.945441 8.000099
v 3.127265 2.000010 7.224559
v 3.127265 2.000010 7.613669
v 3.150803 2.000010 7.559100
v 3.127265 2.000010 7.559100
v 3.479951 1.912483 7.559100
v 3.127265 1.912483 7.613669
v 3.127265 1.912483 7.559100
v 3.349928 1.945441 7.169987
v 3.479951 2.000010 7.169987
v 3.479951 1.945399 7.169990
v 3.150803 1.945399 7.169990
v 3.309953 1.945441 8.000099
v 3.150803 1.945399 8.000099
v 3.127265 1.945399 7.945530
v 3.150803 2.000010 7.945530
v 3.150803 1.945399 7.945530
v 3.150803 2.000010 8.000099
v 3.309953 2.000010 7.169988
v 3.150803 2.000010 7.169987
v 3.479951 1.945399 8.000099
v 3.349928 1.945441 8.390675
v 3.349928 1.945441 8.000099
v 3.127265 1.945399 7.613669
v 3.127265 2.000010 7.559100
v 3.127265 1.945399 7.559100
v 3.479951 1.945399 7.169990
v 3.349928 1.945441 8.000099
v 3.349928 1.945441 7.169987
v 3.150803 1.945399 7.169990
v 3.127265 2.000010 7.169990
v 3.150803 2.000010 7.169987
v 3.127265 1.945399 8.000099
v 3.127265 2.000010 7.945530
v 3.127265 1.945399 7.945530
v 3.309953 1.945441 8.312209
v 3.150803 2.000010 8.000099
v 3.150803 1.945399 8.000099
v 3.349928 2.000010 7.169988
v 3.479951 2.000010 8.000099
v 3.479951 2.000010 7.169987
v 3.349928 2.000010 8.390675
v 3.479951 2.000010 8.646457
v 3.127265 1.945399 7.559100
v 3.150803 2.000010 7.559100
v 3.150803 1.945399 7.559100
v 3.309953 1.945441 7.169987
v 3.150803 2.000010 7.169987
v 3.309953 2.000010 7.169988
v 3.127265 2.000010 7.169990
v 3.150803 2.000010 7.224559
v 3.127265 2.000010 8.000099
v 3.150803 2.000010 7.945530
v 3.127265 2.000010 7.945530
v 3.479951 1.912483 7.169990
v 3.479951 1.945399 7.224559
v 3.479951 1.912483 7.224559
v 3.127265 2.000010 7.169990
v 3.127265 1.945399 7.169990
v 3.150803 1.945399 7.613669
v 3.127265 2.000010 7.613669
v 3.127265 1.945399 7.613669
v 3.150803 1.945399 8.000099
v 3.127265 2.000010 8.000099
v 3.127265 1.945399 8.000099
v 3.349928 2.000010 8.390675
v 3.479951 1.945441 8.646457
v 3.479951 2.000010 8.646457
v 3.479951 1.912483 7.945530
v 3.479951 1.945399 8.000099
v 3.479951 1.912483 8.000099
v 3.479951 1.912483 7.945530
v 3.127265 1.912483 8.000099
v 3.127265 1.912483 7.945530
v 3.479951 1.945399 7.224559
v 3.150803 1.945399 7.169990
v 3.479951 1.945399 8.000099
v 3.150803 1.945399 7.945530
v 3.150803 1.945399 8.000099
v 3.150803 1.945399 7.169990
v 3.150803 2.000010 8.000099
v 3.150803 2.000010 7.169987
v 3.479951 1.945399 7.169990
v 3.479951 2.000010 8.000099
v 3.479951 1.945399 8.000099
v 3.309953 2.000010 8.000099
v 3.309953 2.000010 8.312209
v 3.479951 1.912483 8.000099
v 3.479951 1.945399 8.000099
v 3.150803 1.945399 8.000099
v 3.150803 1.945399 7.559100
v 3.480115 1.945399 7.559100
v 3.479951 1.912483 7.559100
v 3.127265 1.912483 7.613669
v 3.127265 1.945399 7.559100
v 3.127265 1.912483 7.559100
v 3.150803 1.945399 7.169990
v 3.479951 1.945399 7.169990
v 3.479951 1.912483 7.169990
v 3.479951 1.912483 7.613669
v 3.479951 1.945399 7.613669
v 3.150803 1.945399 7.613669
v 3.479951 1.945399 7.613669
v 3.150803 1.945399 7.559100
v 3.150803 1.945399 7.613669
v 3.127265 1.912483 8.000099
v 3.127265 1.912483 7.945530
v 3.479951 1.912483 7.559100
v 3.479951 1.945399 7.613669
v 3.479951 1.912483 7.613669
v 3.479951 2.000010 8.000099
v 3.479951 1.945441 8.646457
v 3.479951 1.945399 8.000099
v 3.479951 1.945399 7.945530
v 3.479951 1.912483 7.945530
v 3.479951 1.912483 7.169990
v 3.127265 1.912483 7.169990
v 3.127265 1.912483 7.169990
v 3.479860 1.912483 8.646456
v 3.151132 1.945399 8.000116
v 3.151132 1.912483 8.000116
v 3.479841 1.912483 8.552883
v 3.479860 1.945399 8.646456
v 3.479860 1.912483 8.646456
v 3.479841 1.912483 8.552883
v 3.151132 1.912483 8.000116
v 3.204589 1.912483 8.000099
v 3.479841 1.945399 8.552883
v 3.204589 1.912483 8.000099
v 3.204589 1.945399 8.000099
v 3.150803 2.000010 7.224559
v 3.150803 2.000010 7.613669
v 3.479951 1.912483 7.613669
v 3.349928 1.945441 7.169987
v 3.349928 2.000010 7.169988
v 3.479951 2.000010 7.169987
v 3.309953 1.945441 7.169987
v 3.127265 2.000010 7.945530
v 3.479951 1.945399 8.000099
v 3.479951 1.945441 8.646457
v 3.349928 1.945441 8.390675
v 3.127265 2.000010 7.613669
v 3.479951 1.945399 8.000099
v 3.127265 1.945399 7.169990
v 3.127265 2.000010 7.169990
v 3.127265 2.000010 8.000099
v 3.309953 2.000010 8.312209
v 3.349928 2.000010 8.000099
v 3.127265 2.000010 7.559100
v 3.309953 1.945441 7.169987
v 3.150803 1.945399 7.169990
v 3.150803 2.000010 7.169987
v 3.127265 2.000010 7.224559
v 3.479951 1.945399 7.169990
v 3.127265 2.000010 7.224559
v 3.150803 2.000010 7.613669
v 3.150803 2.000010 8.000099
v 3.349928 1.945441 8.390675
v 3.479951 1.945399 7.945530
v 3.479951 1.912483 8.000099
v 3.479951 1.945399 7.169990
v 3.479951 1.945399 7.945530
v 3.150803 1.945399 8.000099
v 3.479951 2.000010 7.169987
v 3.127265 1.945399 8.000099
v 3.127265 1.912483 8.000099
v 3.127265 1.912483 7.559100
v 3.127265 1.945399 7.559100
v 3.127265 1.945399 7.613669
v 3.127265 1.912483 7.169990
v 3.127265 1.945399 7.613669
v 3.127265 1.912483 7.613669
v 3.480115 1.945399 7.559100
v 3.479951 1.912483 7.559100
v 3.480115 1.945399 7.559100
v 3.479951 1.945399 7.613669
v 3.479951 1.912483 7.224559
v 3.479951 1.945399 7.224559
v 3.479951 2.000010 8.646457
v 3.127265 1.912483 7.945530
v 3.479951 1.912483 7.224559
v 3.479860 1.912483 8.646456
v 3.479860 1.945399 8.646456
v 3.151132 1.945399 8.000116
v 3.479841 1.945399 8.552883
v 3.479860 1.912483 8.646456
v 3.479841 1.912483 8.552883
v 3.520133 1.945399 7.224559
v 3.520133 1.912483 7.169990
v 3.520133 1.912483 7.224559
v 3.690131 2.000010 8.000099
v 3.690131 2.000010 8.312209
v 3.849282 2.000010 8.000099
v 3.520133 1.945399 7.613669
v 3.849282 1.945399 7.559100
v 3.519969 1.945399 7.559100
v 3.872820 1.945399 7.559100
v 3.872820 1.912483 7.613669
v 3.872820 1.912483 7.559100
v 3.872820 1.912483 7.224559
v 3.520133 1.912483 7.169990
v 3.872820 1.912483 7.169990
v 3.520133 1.912483 7.559100
v 3.519969 1.945399 7.559100
v 3.849282 1.945399 7.559100
v 3.849282 1.945399 7.613669
v 3.520133 1.945399 7.613669
v 3.520133 1.912483 7.613669
v 3.872820 1.945399 7.945530
v 3.872820 1.912483 8.000099
v 3.872820 1.912483 7.945530
v 3.520133 1.945399 7.613669
v 3.520133 1.912483 7.559100
v 3.520133 1.912483 7.613669
v 3.849282 2.000010 8.000099
v 3.849282 1.945399 7.169990
v 3.849282 2.000010 7.169987
v 3.872820 1.912483 7.224559
v 3.872820 1.945399 7.224559
v 3.849282 1.945399 7.224559
v 3.872820 2.000010 7.613669
v 3.849282 1.945399 7.613669
v 3.872820 1.945399 7.613669
v 3.872820 1.945399 7.169990
v 3.872820 1.912483 7.224559
v 3.872820 1.912483 7.169990
v 3.520133 1.945441 8.646457
v 3.520133 2.000010 8.000099
v 3.520133 1.945399 8.000099
v 3.520133 1.945399 7.169990
v 3.520133 2.000010 8.000099
v 3.520133 2.000010 7.169987
v 3.872820 2.000010 7.945530
v 3.872820 1.945399 8.000099
v 3.520133 1.945399 8.000099
v 3.520133 1.912483 7.945530
v 3.520133 1.912483 8.000099
v 3.872820 2.000010 7.169990
v 3.849282 2.000010 7.224559
v 3.872820 2.000010 7.224559
v 3.849282 2.000010 7.945530
v 3.872820 2.000010 8.000099
v 3.872820 2.000010 7.945530
v 3.520133 1.912483 7.169990
v 3.520133 1.945399 7.169990
v 3.849282 1.945399 7.169990
v 3.849282 1.945399 8.000099
v 3.520133 1.945399 8.000099
v 3.520133 1.912483 8.000099
v 3.872820 1.912483 8.000099
v 3.520133 1.912483 7.945530
v 3.872820 1.912483 7.945530
v 3.872820 2.000010 7.559100
v 3.872820 1.945399 7.613669
v 3.690131 1.945441 8.312209
v 3.690131 1.945441 8.000099
v 3.849282 1.945399 8.000099
v 3.849282 1.945399 7.169990
v 3.520133 1.945399 7.224559
v 3.849282 1.945399 7.224559
v 3.849282 2.000010 7.559100
v 3.872820 2.000010 7.613669
v 3.872820 2.000010 7.559100
v 3.690131 1.945441 7.169987
v 3.849282 2.000010 7.169987
v 3.849282 1.945399 7.169990
v 3.872820 2.000010 7.169990
v 3.872820 1.945399 7.169990
v 3.520133 1.945441 8.646457
v 3.650156 2.000010 8.390675
v 3.520133 2.000010 8.646457
v 3.520133 1.912483 7.945530
v 3.520133 1.945399 7.945530
v 3.849282 1.945399 7.945530
v 3.849282 2.000010 7.945530
v 3.872820 1.945399 7.945530
v 3.520133 1.945399 8.000099
v 3.650156 1.945441 8.390675
v 3.520133 1.945441 8.646457
v 3.872820 1.912483 7.613669
v 3.520133 1.912483 7.559100
v 3.872820 1.912483 7.559100
v 3.872820 2.000010 7.224559
v 3.849282 1.945399 7.945530
v 3.520133 1.945399 8.000099
v 3.849282 1.945399 8.000099
v 3.690131 2.000010 7.169988
v 3.520133 1.945399 7.169990
v 3.650156 1.945441 8.000099
v 3.520133 1.945399 8.000099
v 3.849282 1.945399 7.169990
v 3.690131 1.945441 8.000099
v 3.690131 1.945441 7.169987
v 3.690131 1.945441 8.312209
v 3.849282 2.000010 8.000099
v 3.690131 2.000010 8.312209
v 3.849282 2.000010 7.559100
v 3.872820 1.945399 7.559100
v 3.849282 1.945399 7.559100
v 3.520133 2.000010 8.000099
v 3.650156 2.000010 8.390675
v 3.650156 2.000010 8.000099
v 3.520133 2.000010 7.169987
v 3.650156 1.945441 7.169987
v 3.520133 1.945399 7.169990
v 3.650156 2.000010 7.169988
v 3.520133 2.000010 7.169987
v 3.872820 2.000010 7.169990
v 3.872820 1.945399 7.224559
v 3.872820 2.000010 8.000099
v 3.849282 1.945399 8.000099
v 3.872820 1.945399 8.000099
v 3.848861 1.945399 8.000116
v 3.520133 1.912483 8.646456
v 3.848861 1.912483 8.000116
v 3.520133 1.912483 8.646456
v 3.520152 1.945399 8.552883
v 3.520152 1.912483 8.552883
v 3.848861 1.912483 8.000116
v 3.520152 1.912483 8.552883
v 3.795404 1.912483 8.000099
v 3.795404 1.912483 8.000099
v 3.520152 1.945399 8.552883
v 3.795404 1.945399 8.000099
v 3.520133 1.945399 7.169990
v 3.849282 1.945399 7.613669
v 3.520133 1.912483 7.224559
v 3.872820 1.945399 7.559100
v 3.872820 1.912483 7.559100
v 3.872820 1.912483 7.613669
v 3.872820 1.945399 7.613669
v 3.520133 1.945399 7.613669
v 3.519969 1.945399 7.559100
v 3.520133 1.912483 7.559100
v 3.849282 1.945399 8.000099
v 3.520133 1.945399 7.224559
v 3.520133 1.912483 7.224559
v 3.849282 2.000010 7.613669
v 3.520133 2.000010 8.646457
v 3.520133 1.945399 8.000099
v 3.872820 2.000010 8.000099
v 3.520133 1.945399 7.945530
v 3.849282 2.000010 7.169987
v 3.872820 1.912483 7.169990
v 3.872820 1.912483 8.000099
v 3.872820 1.945399 8.000099
v 3.520133 1.912483 8.000099
v 3.872820 2.000010 7.613669
v 3.520133 1.945399 7.169990
v 3.849282 2.000010 7.613669
v 3.690131 1.945441 7.169987
v 3.690131 2.000010 7.169988
v 3.849282 2.000010 7.169987
v 3.849282 1.945399 7.169990
v 3.849282 2.000010 7.169987
v 3.872820 2.000010 7.169990
v 3.650156 1.945441 8.390675
v 3.872820 1.912483 7.945530
v 3.872820 2.000010 7.945530
v 3.520133 1.945399 8.000099
v 3.650156 1.945441 8.000099
v 3.650156 1.945441 8.390675
v 3.520133 1.912483 7.613669
v 3.849282 2.000010 7.224559
v 3.520133 1.945399 7.945530
v 3.650156 1.945441 7.169987
v 3.849282 1.945399 8.000099
v 3.849282 1.945399 8.000099
v 3.872820 2.000010 7.559100
v 3.520133 2.000010 8.646457
v 3.520133 2.000010 7.169987
v 3.650156 2.000010 7.169988
v 3.650156 1.945441 7.169987
v 3.872820 2.000010 7.224559
v 3.849282 2.000010 8.000099
v 3.848861 1.945399 8.000116
v 3.520133 1.945441 8.646457
v 3.520133 1.912483 8.646456
v 3.520133 1.945441 8.646457
v 3.520133 1.912483 8.646456
v 3.520152 1.912483 8.552883
v 3.150803 1.945399 7.224559
v 3.127265 1.945399 7.224559
v 3.127265 1.945399 7.224559
v 3.150803 1.945399 7.224559
v 3.150803 1.945399 7.224559
v 3.127265 1.945399 7.224559
v 3.127265 1.912483 7.224559
v 3.127265 1.912483 7.224559
v 3.127265 1.912483 7.224559
vt 0.508856 0.072196
vt 0.488196 0.313830
vt 0.488180 0.072196
vt 0.229136 0.581754
vt 0.275023 0.581754
vt 0.229136 0.671960
vt 0.486442 0.054390
vt 0.507118 0.364719
vt 0.486442 0.364719
vt 0.243869 0.408069
vt 0.225406 0.685161
vt 0.225406 0.408068
vt 0.198512 0.460095
vt 0.293597 0.444313
vt 0.293597 0.460095
vt 0.183783 0.851719
vt 0.183783 0.841966
vt 0.283067 0.841966
vt 0.174706 0.840723
vt 0.274038 0.840723
vt 0.273990 0.850476
vt 0.339999 0.849272
vt 0.330364 0.833113
vt 0.340000 0.833113
vt 0.130397 0.850267
vt 0.120644 0.834300
vt 0.130397 0.834300
vt 0.298550 0.461488
vt 0.203465 0.445707
vt 0.298550 0.445707
vt 0.186091 0.858555
vt 0.186091 0.848801
vt 0.285374 0.848801
vt 0.163373 0.849967
vt 0.262657 0.849967
vt 0.262657 0.859721
vt 0.208418 0.456688
vt 0.303504 0.440907
vt 0.303504 0.456688
vt 0.108194 0.849422
vt 0.117829 0.865581
vt 0.108194 0.865581
vt 0.186653 0.851443
vt 0.176900 0.835476
vt 0.186653 0.835476
vt 0.278697 0.835517
vt 0.285588 0.835517
vt 0.285588 0.845271
vt 0.272882 0.841110
vt 0.173598 0.841110
vt 0.173598 0.831357
vt 0.236104 0.841569
vt 0.252274 0.947743
vt 0.236104 0.947743
vt 0.280201 0.843281
vt 0.270565 0.827122
vt 0.280201 0.827122
vt 0.254431 0.834175
vt 0.270397 0.824422
vt 0.270397 0.834175
vt 0.259501 0.939898
vt 0.243331 0.833723
vt 0.259501 0.833723
vt 0.277264 0.846033
vt 0.293446 0.852924
vt 0.277264 0.852924
vt 0.117829 0.849422
vt 0.133816 0.865581
vt 0.234383 0.860055
vt 0.218222 0.844068
vt 0.234383 0.844068
vt 0.281830 0.341691
vt 0.275023 0.357472
vt 0.275023 0.341690
vt 0.281830 0.581754
vt 0.275023 0.565973
vt 0.281830 0.565973
vt 0.281830 0.470001
vt 0.275023 0.454220
vt 0.281830 0.454220
vt 0.183446 0.846115
vt 0.190337 0.829934
vt 0.190337 0.846115
vt 0.292019 0.847040
vt 0.298909 0.830858
vt 0.298909 0.847040
vt 0.249042 0.852991
vt 0.233055 0.836831
vt 0.249042 0.836831
vt 0.270565 0.843281
vt 0.254578 0.827122
vt 0.215612 0.868051
vt 0.231773 0.852064
vt 0.231773 0.868051
vt 0.262886 0.845942
vt 0.246704 0.839051
vt 0.262886 0.839051
vt 0.231521 0.849662
vt 0.247703 0.856553
vt 0.231521 0.856553
vt 0.246881 0.830518
vt 0.253772 0.846699
vt 0.246881 0.846699
vt 0.245017 0.551627
vt 0.226560 0.437107
vt 0.245023 0.437107
vt 0.238812 0.396540
vt 0.218153 0.459808
vt 0.218153 0.396539
vt 0.233184 0.573086
vt 0.270742 0.686137
vt 0.233184 0.760009
vt 0.255312 0.652031
vt 0.273761 0.553429
vt 0.273761 0.652032
vt 0.270922 0.453699
vt 0.220203 0.572700
vt 0.220203 0.453699
vt 0.270927 0.398505
vt 0.220207 0.675771
vt 0.220207 0.398504
vt 0.252068 0.954350
vt 0.235899 0.848175
vt 0.252068 0.848175
vt 0.229136 0.341691
vt 0.227136 0.449626
vt 0.247796 0.505740
vt 0.227121 0.505740
vt 0.270741 0.333023
vt 0.233184 0.333022
vt 0.275000 0.629108
vt 0.217814 0.516517
vt 0.275000 0.516517
vt 0.216532 0.414146
vt 0.273718 0.691412
vt 0.216532 0.691412
vt 0.253355 0.340352
vt 0.235063 0.743333
vt 0.235063 0.340333
vt 0.246224 0.459344
vt 0.273083 0.535734
vt 0.246213 0.535730
vt 0.213377 0.683417
vt 0.308437 0.523560
vt 0.292978 0.523555
vt 0.255069 0.761624
vt 0.231376 0.317121
vt 0.255069 0.317121
vt 0.508856 0.313830
vt 0.507117 0.054389
vt 0.243869 0.685161
vt 0.198464 0.444313
vt 0.289957 0.841966
vt 0.289957 0.851719
vt 0.167815 0.850476
vt 0.167815 0.840723
vt 0.330364 0.849272
vt 0.130397 0.850267
vt 0.120644 0.850268
vt 0.120644 0.834300
vt 0.203465 0.461488
vt 0.292265 0.848801
vt 0.292265 0.858555
vt 0.156482 0.859721
vt 0.156482 0.849967
vt 0.208418 0.440907
vt 0.176900 0.851443
vt 0.179414 0.845271
vt 0.179414 0.835517
vt 0.279773 0.831357
vt 0.279773 0.841110
vt 0.252274 0.841569
vt 0.254431 0.824422
vt 0.243331 0.939898
vt 0.293446 0.846033
vt 0.133817 0.849422
vt 0.218222 0.860055
vt 0.281830 0.357472
vt 0.275023 0.470001
vt 0.183446 0.829934
vt 0.292019 0.830858
vt 0.233055 0.852991
vt 0.254578 0.843281
vt 0.215611 0.852064
vt 0.246704 0.845942
vt 0.247703 0.849662
vt 0.246881 0.830518
vt 0.253772 0.830518
vt 0.253772 0.846699
vt 0.226568 0.551628
vt 0.238812 0.396540
vt 0.238828 0.459808
vt 0.218153 0.459808
vt 0.270741 0.573086
vt 0.255312 0.553428
vt 0.270922 0.453699
vt 0.270922 0.669589
vt 0.220203 0.572700
vt 0.270927 0.675771
vt 0.235899 0.954350
vt 0.227136 0.449626
vt 0.247796 0.449626
vt 0.247796 0.505740
vt 0.273718 0.414145
vt 0.253355 0.340352
vt 0.253355 0.743333
vt 0.235063 0.743333
vt 0.273094 0.459348
vt 0.213371 0.710477
vt 0.231376 0.761624
vt 0.512694 0.300452
vt 0.492034 0.058843
vt 0.512709 0.058843
vt 0.275307 0.574324
vt 0.275306 0.664874
vt 0.229050 0.574324
vt 0.516693 0.056894
vt 0.496018 0.367189
vt 0.496018 0.056893
vt 0.237203 0.395668
vt 0.255666 0.672790
vt 0.237203 0.672791
vt 0.299548 0.456380
vt 0.204285 0.440598
vt 0.299596 0.440598
vt 0.243465 0.852429
vt 0.342749 0.852429
vt 0.342749 0.862183
vt 0.331699 0.855606
vt 0.331747 0.865359
vt 0.232415 0.865359
vt 0.336372 0.865301
vt 0.346008 0.849140
vt 0.346008 0.865301
vt 0.263038 0.852084
vt 0.279003 0.861837
vt 0.263038 0.861837
vt 0.208000 0.456535
vt 0.303263 0.440754
vt 0.303263 0.456535
vt 0.216766 0.854991
vt 0.316049 0.854991
vt 0.316049 0.864744
vt 0.297828 0.847381
vt 0.297828 0.857134
vt 0.198544 0.857134
vt 0.205523 0.460403
vt 0.300787 0.444622
vt 0.300787 0.460403
vt 0.315861 0.863411
vt 0.325497 0.847250
vt 0.325497 0.863410
vt 0.321370 0.864155
vt 0.305405 0.854402
vt 0.321370 0.854402
vt 0.236197 0.847315
vt 0.236197 0.857068
vt 0.229306 0.857068
vt 0.277359 0.845389
vt 0.277359 0.855142
vt 0.178075 0.855142
vt 0.260901 0.993224
vt 0.277071 0.887049
vt 0.277071 0.993224
vt 0.303502 0.869715
vt 0.313138 0.853554
vt 0.313138 0.869715
vt 0.294310 0.863763
vt 0.278345 0.854010
vt 0.294310 0.854010
vt 0.258587 0.983997
vt 0.274756 0.877823
vt 0.274756 0.983997
vt 0.236574 0.836248
vt 0.236574 0.852429
vt 0.299874 0.863411
vt 0.315861 0.847250
vt 0.339176 0.861133
vt 0.323189 0.844974
vt 0.339176 0.844974
vt 0.222243 0.334262
vt 0.229050 0.350043
vt 0.222243 0.350043
vt 0.229050 0.558543
vt 0.222243 0.574324
vt 0.222243 0.558543
vt 0.204285 0.440598
vt 0.197478 0.456380
vt 0.197478 0.440598
vt 0.389723 0.846974
vt 0.373736 0.863133
vt 0.373736 0.846974
vt 0.198544 0.873316
vt 0.191654 0.857134
vt 0.236197 0.873250
vt 0.320385 0.865301
vt 0.336372 0.849140
vt 0.287515 0.869715
vt 0.303502 0.853554
vt 0.327061 0.841851
vt 0.343220 0.857838
vt 0.327061 0.857838
vt 0.153029 0.847452
vt 0.169211 0.840562
vt 0.169211 0.847452
vt 0.323703 0.844159
vt 0.330593 0.860341
vt 0.323702 0.860341
vt 0.171185 0.871324
vt 0.171185 0.855142
vt 0.246515 0.377303
vt 0.228059 0.491658
vt 0.228066 0.377303
vt 0.245504 0.590241
vt 0.227055 0.533743
vt 0.245518 0.533743
vt 0.269830 0.573086
vt 0.232217 0.686105
vt 0.232217 0.573086
vt 0.250461 0.678390
vt 0.232013 0.579936
vt 0.250461 0.579935
vt 0.272632 0.581748
vt 0.222584 0.464323
vt 0.272632 0.368718
vt 0.274142 0.666369
vt 0.223422 0.389103
vt 0.274142 0.389103
vt 0.260074 0.996313
vt 0.276243 0.890138
vt 0.276243 0.996313
vt 0.275307 0.334261
vt 0.223117 0.560314
vt 0.241565 0.510204
vt 0.241580 0.560314
vt 0.232217 0.333023
vt 0.269830 0.333022
vt 0.278613 0.414533
vt 0.278613 0.527124
vt 0.221427 0.527124
vt 0.222346 0.651985
vt 0.279532 0.374719
vt 0.279532 0.651986
vt 0.235063 0.340333
vt 0.253355 0.743333
vt 0.253355 0.340352
vt 0.273083 0.535734
vt 0.246224 0.459344
vt 0.246213 0.535730
vt 0.200767 0.521083
vt 0.295828 0.680940
vt 0.216227 0.521078
vt 0.231376 0.317121
vt 0.255069 0.761624
vt 0.255069 0.317121
vt 0.492034 0.300452
vt 0.516693 0.367189
vt 0.255666 0.395668
vt 0.204285 0.456380
vt 0.236574 0.862183
vt 0.225524 0.865359
vt 0.225524 0.855606
vt 0.263038 0.852084
vt 0.279004 0.852084
vt 0.279003 0.861837
vt 0.208000 0.440754
vt 0.209875 0.864744
vt 0.209875 0.854991
vt 0.191654 0.847381
vt 0.205523 0.444622
vt 0.305405 0.864155
vt 0.130023 0.857068
vt 0.130023 0.847315
vt 0.171185 0.845389
vt 0.260901 0.887049
vt 0.278346 0.863763
vt 0.258587 0.877823
vt 0.243465 0.836248
vt 0.299874 0.847250
vt 0.323188 0.861133
vt 0.229050 0.334261
vt 0.204285 0.456380
vt 0.389723 0.863133
vt 0.191654 0.873316
vt 0.229306 0.873250
vt 0.320385 0.849140
vt 0.287515 0.853554
vt 0.343221 0.841851
vt 0.153029 0.840562
vt 0.330593 0.844159
vt 0.178075 0.855142
vt 0.178075 0.871324
vt 0.171185 0.871324
vt 0.246522 0.491658
vt 0.245504 0.590241
vt 0.227055 0.590241
vt 0.227055 0.533743
vt 0.269830 0.760009
vt 0.232013 0.678391
vt 0.272632 0.581748
vt 0.222584 0.581748
vt 0.222584 0.464323
vt 0.223422 0.666370
vt 0.260074 0.890138
vt 0.223117 0.560314
vt 0.223117 0.510204
vt 0.241565 0.510204
vt 0.222346 0.374719
vt 0.235063 0.340333
vt 0.235063 0.743333
vt 0.253355 0.743333
vt 0.273094 0.459348
vt 0.295833 0.708001
vt 0.231376 0.761624
vt 0.229167 0.420430
vt 0.208508 0.491464
vt 0.208492 0.420430
vt 0.293059 0.403370
vt 0.221128 0.627714
vt 0.221128 0.403370
vt 0.267513 0.654651
vt 0.246838 0.430449
vt 0.267513 0.430449
vt 0.027344 0.421393
vt 0.099242 0.645736
vt 0.027344 0.645736
vt 0.301350 0.677418
vt 0.280675 0.453191
vt 0.301350 0.453191
vt 0.122312 0.356939
vt 0.050414 0.581282
vt 0.050414 0.356939
vt 0.200788 0.624274
vt 0.221447 0.557019
vt 0.221447 0.624274
vt 0.307287 0.421392
vt 0.239214 0.645736
vt 0.239214 0.421392
vt 0.212156 0.399908
vt 0.280230 0.624252
vt 0.212156 0.624252
vt 0.211028 0.615995
vt 0.282959 0.391652
vt 0.282959 0.615995
vt 0.282640 0.628380
vt 0.261980 0.557315
vt 0.282656 0.557315
vt 0.148799 0.604679
vt 0.133475 0.431606
vt 0.148799 0.431606
vt 0.176828 0.608289
vt 0.192152 0.441747
vt 0.192152 0.608289
vt 0.073827 0.551635
vt 0.073827 0.542391
vt 0.240369 0.542391
vt 0.216390 0.512075
vt 0.207257 0.496759
vt 0.216390 0.496759
vt 0.243509 0.510839
vt 0.258640 0.501595
vt 0.258640 0.510839
vt 0.241134 0.442848
vt 0.250377 0.442848
vt 0.250377 0.449379
vt 0.242372 0.423347
vt 0.256876 0.587150
vt 0.242372 0.587150
vt 0.192152 0.608289
vt 0.207476 0.441747
vt 0.207476 0.608289
vt 0.147713 0.500781
vt 0.147713 0.491537
vt 0.314256 0.491537
vt 0.216390 0.487495
vt 0.207257 0.472179
vt 0.216390 0.472179
vt 0.174932 0.472996
vt 0.165689 0.457865
vt 0.174932 0.457865
vt 0.239420 0.423748
vt 0.248663 0.423748
vt 0.248663 0.430279
vt 0.256784 0.593942
vt 0.242165 0.428834
vt 0.256784 0.428834
vt 0.171993 0.602604
vt 0.187318 0.436061
vt 0.187318 0.602604
vt 0.089303 0.528285
vt 0.089303 0.519041
vt 0.255845 0.519041
vt 0.192106 0.550090
vt 0.201238 0.565407
vt 0.192106 0.565406
vt 0.273770 0.501595
vt 0.258640 0.510839
vt 0.258640 0.501595
vt 0.079622 0.532703
vt 0.079622 0.523459
vt 0.086152 0.523459
vt 0.147649 0.540942
vt 0.154179 0.525606
vt 0.154179 0.540942
vt 0.207258 0.487495
vt 0.192106 0.472179
vt 0.159104 0.472799
vt 0.143964 0.479409
vt 0.143964 0.472799
vt 0.159104 0.497378
vt 0.143964 0.503989
vt 0.143964 0.497378
vt 0.207246 0.458959
vt 0.192106 0.465569
vt 0.192106 0.458959
vt 0.305970 0.482916
vt 0.299440 0.498252
vt 0.299440 0.482916
vt 0.262376 0.503705
vt 0.262376 0.519041
vt 0.207258 0.512075
vt 0.192106 0.496759
vt 0.201238 0.550090
vt 0.216390 0.565407
vt 0.262376 0.460297
vt 0.255845 0.475633
vt 0.255845 0.460297
vt 0.320786 0.476201
vt 0.320786 0.491537
vt 0.147713 0.466957
vt 0.154244 0.451621
vt 0.154244 0.466957
vt 0.296465 0.705741
vt 0.317124 0.776774
vt 0.296449 0.776774
vt 0.234169 0.611154
vt 0.213510 0.543900
vt 0.234169 0.543900
vt 0.240584 0.643365
vt 0.261243 0.572300
vt 0.261259 0.643365
vt 0.229167 0.491464
vt 0.293059 0.627714
vt 0.246838 0.654652
vt 0.099242 0.421392
vt 0.280675 0.677418
vt 0.122312 0.581283
vt 0.200788 0.557019
vt 0.307287 0.645736
vt 0.280230 0.399908
vt 0.211028 0.391651
vt 0.282640 0.628380
vt 0.261980 0.628380
vt 0.261980 0.557315
vt 0.133475 0.604679
vt 0.176828 0.441747
vt 0.246900 0.542391
vt 0.246900 0.551635
vt 0.243509 0.501595
vt 0.250377 0.615921
vt 0.241134 0.615921
vt 0.256876 0.423347
vt 0.192152 0.441747
vt 0.320786 0.500781
vt 0.165689 0.472996
vt 0.248664 0.596821
vt 0.239420 0.596821
vt 0.242165 0.593942
vt 0.171994 0.436061
vt 0.262376 0.528285
vt 0.273770 0.510839
vt 0.252695 0.523459
vt 0.252695 0.532702
vt 0.147649 0.525606
vt 0.192106 0.487495
vt 0.159104 0.479409
vt 0.159104 0.503989
vt 0.207246 0.465569
vt 0.305970 0.498252
vt 0.255845 0.503705
vt 0.192106 0.512075
vt 0.216390 0.550090
vt 0.262376 0.475633
vt 0.314256 0.476201
vt 0.147713 0.451621
vt 0.317124 0.705741
vt 0.213510 0.611154
vt 0.240584 0.572300
vt 0.277261 0.639372
vt 0.213222 0.513290
vt 0.277261 0.513290
vt 0.104925 0.488232
vt 0.124309 0.452177
vt 0.117036 0.435315
vt 0.124309 0.435315
vt 0.241991 0.548305
vt 0.226667 0.447679
vt 0.241991 0.447679
vt 0.246823 0.912253
vt 0.267482 0.968367
vt 0.246807 0.968367
vt 0.230448 0.402123
vt 0.294486 0.712613
vt 0.230448 0.712613
vt 0.111683 0.486722
vt 0.118214 0.471386
vt 0.118214 0.486722
vt 0.117036 0.571584
vt 0.067858 0.315078
vt 0.117036 0.315078
vt 0.269222 0.450756
vt 0.212425 0.584017
vt 0.212425 0.450756
vt 0.227527 0.521620
vt 0.212375 0.506305
vt 0.227527 0.506305
vt 0.276605 0.386344
vt 0.219808 0.696834
vt 0.219808 0.386343
vt 0.105153 0.505209
vt 0.111683 0.520545
vt 0.105153 0.520546
vt 0.267063 0.468511
vt 0.282214 0.483826
vt 0.267063 0.483826
vt 0.244986 0.555211
vt 0.224318 0.426968
vt 0.244994 0.426968
vt 0.112399 0.309786
vt 0.072221 0.566292
vt 0.072221 0.309785
vt 0.112399 0.686981
vt 0.072221 0.766018
vt 0.349400 0.494849
vt 0.364736 0.501379
vt 0.349400 0.501379
vt 0.258884 0.522537
vt 0.238225 0.585806
vt 0.238225 0.522537
vt 0.124309 0.315079
vt 0.117036 0.331941
vt 0.124309 0.571584
vt 0.117036 0.554723
vt 0.124309 0.554723
vt 0.110194 0.498817
vt 0.125327 0.489574
vt 0.125327 0.498817
vt 0.195804 0.514386
vt 0.210956 0.514386
vt 0.071102 0.494762
vt 0.055766 0.488232
vt 0.071102 0.488232
vt 0.198335 0.501425
vt 0.182999 0.494894
vt 0.198335 0.494894
vt 0.272573 0.555058
vt 0.293232 0.665478
vt 0.272573 0.665476
vt 0.140459 0.489574
vt 0.125327 0.498817
vt 0.125327 0.489574
vt 0.225629 0.481818
vt 0.240953 0.582444
vt 0.225629 0.582444
vt 0.034266 0.574411
vt 0.135974 0.557549
vt 0.015328 0.571584
vt 0.117036 0.554723
vt 0.117036 0.571584
vt 0.259759 0.392280
vt 0.239083 0.702575
vt 0.239083 0.392279
vt 0.490142 0.048087
vt 0.510818 0.358415
vt 0.490143 0.358415
vt 0.067858 0.571584
vt 0.067858 0.668027
vt 0.188756 0.495653
vt 0.188756 0.486409
vt 0.282851 0.486409
vt 0.164406 0.538812
vt 0.070266 0.538812
vt 0.070311 0.529569
vt 0.239120 0.516698
vt 0.229988 0.501383
vt 0.239120 0.501383
vt 0.105153 0.505209
vt 0.011057 0.505209
vt 0.011057 0.495966
vt 0.202166 0.488810
vt 0.202166 0.479566
vt 0.296261 0.479566
vt 0.036582 0.573915
vt 0.138290 0.557052
vt 0.138290 0.573915
vt 0.257930 0.468511
vt 0.257930 0.483826
vt 0.095059 0.489574
vt 0.079927 0.498817
vt 0.079927 0.489574
vt 0.507005 0.085117
vt 0.486345 0.326752
vt 0.486329 0.085117
vt 0.212309 0.486722
vt 0.212309 0.495966
vt 0.240953 0.553715
vt 0.240953 0.453089
vt 0.220088 0.514386
vt 0.253355 0.743333
vt 0.235063 0.340333
vt 0.253355 0.340352
vt 0.246224 0.459344
vt 0.273083 0.535734
vt 0.246213 0.535730
vt 0.042666 0.680438
vt 0.144238 0.509632
vt 0.127719 0.509626
vt 0.255069 0.761624
vt 0.231376 0.317121
vt 0.255069 0.317121
vt 0.104925 0.494762
vt 0.117036 0.452177
vt 0.226667 0.548305
vt 0.246823 0.912253
vt 0.267482 0.912253
vt 0.267482 0.968367
vt 0.294486 0.402122
vt 0.111683 0.471386
vt 0.269222 0.450756
vt 0.269222 0.692516
vt 0.212425 0.584017
vt 0.212375 0.521620
vt 0.276605 0.696834
vt 0.111683 0.505209
vt 0.111683 0.520545
vt 0.282214 0.468511
vt 0.224327 0.555211
vt 0.112399 0.566292
vt 0.364736 0.494849
vt 0.258884 0.522537
vt 0.258900 0.585806
vt 0.238225 0.585806
vt 0.124309 0.331941
vt 0.110194 0.489574
vt 0.195804 0.529701
vt 0.055766 0.494762
vt 0.182998 0.501425
vt 0.293232 0.555059
vt 0.140459 0.498817
vt 0.240953 0.481818
vt 0.034266 0.557549
vt 0.015328 0.554723
vt 0.259759 0.702575
vt 0.510818 0.048086
vt 0.289382 0.486409
vt 0.289382 0.495653
vt 0.170937 0.529569
vt 0.170937 0.538812
vt 0.229987 0.516698
vt 0.111683 0.495966
vt 0.302791 0.479566
vt 0.302791 0.488810
vt 0.036531 0.557052
vt 0.095059 0.489574
vt 0.095061 0.498817
vt 0.079927 0.498817
vt 0.203978 0.490673
vt 0.203978 0.481430
vt 0.507005 0.326752
vt 0.111683 0.495966
vt 0.225629 0.553715
vt 0.253355 0.743333
vt 0.235063 0.743333
vt 0.235063 0.340333
vt 0.273094 0.459348
vt 0.042660 0.709352
vt 0.231376 0.761624
vt 0.261509 0.498817
vt 0.246379 0.489574
vt 0.261509 0.489574
vt 0.113123 0.571584
vt 0.113123 0.668027
vt 0.063945 0.571584
vt 0.133983 0.573915
vt 0.032275 0.557052
vt 0.134033 0.557052
vt 0.154085 0.473080
vt 0.138768 0.463948
vt 0.154085 0.463948
vt 0.183634 0.572120
vt 0.198958 0.471495
vt 0.198958 0.572120
vt 0.170891 0.451658
vt 0.170937 0.460901
vt 0.076796 0.460901
vt 0.208665 0.456422
vt 0.302760 0.456422
vt 0.302760 0.465665
vt 0.299908 0.535862
vt 0.309040 0.520546
vt 0.309040 0.535862
vt 0.222399 0.472348
vt 0.237530 0.481592
vt 0.222399 0.481592
vt 0.271584 0.348082
vt 0.292259 0.658410
vt 0.271584 0.658411
vt 0.312935 0.495966
vt 0.312935 0.505210
vt 0.306404 0.505210
vt 0.066791 0.495223
vt 0.073322 0.510559
vt 0.066791 0.510559
vt 0.346209 0.479697
vt 0.330893 0.470565
vt 0.346209 0.470565
vt 0.497761 0.328332
vt 0.477102 0.086724
vt 0.497777 0.086723
vt 0.504051 0.049986
vt 0.483376 0.360281
vt 0.483376 0.049985
vt 0.284756 0.535862
vt 0.299908 0.520546
vt 0.261600 0.462683
vt 0.246470 0.453439
vt 0.261600 0.453439
vt 0.056672 0.315079
vt 0.063945 0.331941
vt 0.056672 0.331941
vt 0.063945 0.554723
vt 0.056672 0.571584
vt 0.056672 0.554723
vt 0.212309 0.495966
vt 0.212309 0.505209
vt 0.118214 0.505209
vt 0.204198 0.446603
vt 0.298293 0.446603
vt 0.298293 0.455846
vt 0.240390 0.559740
vt 0.255715 0.459115
vt 0.255715 0.559740
vt 0.154085 0.488232
vt 0.138768 0.473080
vt 0.265249 0.406029
vt 0.265249 0.532111
vt 0.201210 0.532111
vt 0.037898 0.556226
vt 0.139606 0.573088
vt 0.037898 0.573088
vt 0.039221 0.554737
vt 0.031948 0.571599
vt 0.031948 0.554737
vt 0.245098 0.593678
vt 0.224439 0.530410
vt 0.245114 0.530410
vt 0.111683 0.520545
vt 0.111683 0.505209
vt 0.246482 0.694994
vt 0.267141 0.584741
vt 0.267141 0.694993
vt 0.312935 0.471386
vt 0.312935 0.480630
vt 0.218839 0.480630
vt 0.218839 0.495966
vt 0.212309 0.480630
vt 0.123438 0.618260
vt 0.066641 0.484999
vt 0.123438 0.376500
vt 0.234961 0.537134
vt 0.250286 0.436508
vt 0.250286 0.537134
vt 0.312935 0.520546
vt 0.037898 0.556390
vt 0.139606 0.573251
vt 0.037898 0.573251
vt 0.113123 0.315078
vt 0.256320 0.699897
vt 0.199523 0.389407
vt 0.256320 0.389407
vt 0.228279 0.665425
vt 0.292317 0.354935
vt 0.292317 0.665426
vt 0.262721 0.357828
vt 0.242054 0.485886
vt 0.242062 0.357828
vt 0.275753 0.503390
vt 0.269222 0.488054
vt 0.275753 0.488054
vt 0.110083 0.571584
vt 0.069905 0.692273
vt 0.069905 0.571584
vt 0.226972 0.564070
vt 0.247631 0.507957
vt 0.247647 0.564070
vt 0.069905 0.315078
vt 0.110083 0.315078
vt 0.346209 0.494849
vt 0.330893 0.479697
vt 0.184130 0.535870
vt 0.190661 0.551206
vt 0.184130 0.551206
vt 0.235063 0.340333
vt 0.253355 0.743333
vt 0.253355 0.340352
vt 0.246213 0.535730
vt 0.273094 0.459348
vt 0.246224 0.459344
vt 0.039953 0.504381
vt 0.141525 0.675187
vt 0.056471 0.504376
vt 0.231376 0.317121
vt 0.255069 0.761624
vt 0.255069 0.317121
vt 0.246379 0.498817
vt 0.032275 0.573915
vt 0.183634 0.471495
vt 0.070266 0.460901
vt 0.070266 0.451658
vt 0.202134 0.465665
vt 0.202134 0.456422
vt 0.222399 0.472348
vt 0.237532 0.472348
vt 0.237530 0.481592
vt 0.292259 0.348082
vt 0.212309 0.505210
vt 0.212309 0.495966
vt 0.073322 0.495223
vt 0.477102 0.328332
vt 0.504051 0.360281
vt 0.284756 0.520546
vt 0.246470 0.462683
vt 0.063945 0.315078
vt 0.111683 0.495966
vt 0.197667 0.455846
vt 0.197667 0.446603
vt 0.240390 0.459114
vt 0.138768 0.488232
vt 0.139606 0.556226
vt 0.039221 0.571599
vt 0.245098 0.593678
vt 0.224439 0.593678
vt 0.224439 0.530410
vt 0.118214 0.505209
vt 0.118214 0.520546
vt 0.111683 0.520545
vt 0.246482 0.584742
vt 0.212309 0.471386
vt 0.212309 0.495966
vt 0.123438 0.618260
vt 0.066641 0.618260
vt 0.066641 0.484999
vt 0.234962 0.436508
vt 0.306404 0.520546
vt 0.139606 0.556390
vt 0.199523 0.699898
vt 0.228279 0.354935
vt 0.262730 0.485885
vt 0.269222 0.503390
vt 0.110083 0.771311
vt 0.226972 0.564070
vt 0.226972 0.507957
vt 0.247631 0.507957
vt 0.330893 0.494849
vt 0.190661 0.535870
vt 0.235063 0.340333
vt 0.235063 0.743333
vt 0.253355 0.743333
vt 0.273083 0.535734
vt 0.141531 0.704101
vt 0.231376 0.761624
vt 0.120261 0.494762
vt 0.120261 0.488232
vt 0.210956 0.529701
vt 0.135974 0.574411
vt 0.298073 0.481430
vt 0.304604 0.481430
vt 0.304604 0.490673
vt 0.225629 0.453089
vt 0.220088 0.529701
vn 1.000000 -0.000002 0.000000
vn 1.000000 -0.000002 0.000000
vn 1.000000 -0.000002 0.000000
vn 0.000000 1.000000 0.000000
vn 0.000000 1.000000 0.000000
vn 0.000000 1.000000 0.000000
vn 1.000000 -0.000002 0.000000
vn 1.000000 -0.000002 0.000000
vn 1.000000 -0.000002 0.000000
vn -1.000000 -0.000001 0.000000
vn -1.000000 -0.000001 0.000000
vn -1.000000 -0.000001 0.000000
vn 0.000000 1.000000 0.000000
vn 0.000000 1.000000 0.000000
vn 0.000000 1.000000 0.000000
vn 0.000000 0.000000 1.000000
vn 0.000000 0.000000 1.000000
vn 0.000000 0.000000 1.000000
vn 0.000000 0.000000 -1.000000
vn 0.000000 0.000000 -1.000000
vn 0.000000 0.000000 -1.000000
vn -1.000000 0.000000 0.000000
vn -1.000000 0.000000 0.000000
vn -1.000000 0.000000 0.000000
vn 1.000000 0.000000 -0.000001
vn 1.000000 0.000000 -0.000001
vn 1.000000 0.000000 -0.000001
vn 0.000000 1.000000 0.000000
vn 0.000000 1.000000 0.000000
vn 0.000000 1.000000 0.000000
vn 0.000001 0.000000 1.000000
vn 0.000001 0.000000 1.000000
vn 0.000001 0.000000 1.000000
vn 0.000000 0.000000 -1.000000
vn 0.000000 0.000000 -1.000000
vn 0.000000 0.000000 -1.000000
vn 0.000000 1.000000 0.000000
vn 0.000000 1.000000 0.000000
vn 0.000000 1.000000 0.000000
vn -1.000000 0.000000 0.000000
vn -1.000000 0.000000 0.000000
vn -1.000000 0.000000 0.000000
vn 1.000000 0.000000 -0.000001
vn 1.000000 0.000000 -0.000001
vn 1.000000 0.000000 -0.000001
vn 0.000000 0.000000 1.000000
vn 0.000000 0.000000 1.000000
vn 0.000000 0.000000 1.000000
vn 0.000000 0.000000 -1.000000
vn 0.000000 0.000000 -1.000000
vn 0.000000 0.000000 -1.000000
vn 0.000000 -1.000000 0.000000
vn 0.000000 -1.000000 0.000000
vn 0.000000 -1.000000 0.000000
vn -1.000000 0.000000 0.000000
vn -1.000000 0.000000 0.000000
vn -1.000000 0.000000 0.000000
vn 1.000000 0.000000 -0.000001
vn 1.000000 0.000000 -0.000001
vn 1.000000 0.000000 -0.000001
vn 0.000000 -1.000000 0.000000
vn 0.000000 -1.000000 0.000000
vn 0.000000 -1.000000 0.000000
vn 0.000000 0.000000 1.000000
vn 0.000000 0.000000 1.000000
vn 0.000000 0.000000 1.000000
vn -1.000000 0.000000 0.000000
vn -1.000000 0.000000 0.000000
vn 1.000000 0.000001 0.000001
vn 1.000000 0.000001 0.000001
vn 1.000000 0.000001 0.000001
vn -0.000026 1.000000 0.000011
vn -0.000026 1.000000 0.000011
vn -0.000026 1.000000 0.000011
vn 0.000000 1.000000 0.000000
vn 0.000000 1.000000 0.000000
vn 0.000000 1.000000 0.000000
vn 0.000000 1.000000 0.000000
vn 0.000000 1.000000 0.000000
vn 0.000000 1.000000 0.000000
vn 0.000000 0.000000 -1.000000
vn 0.000000 0.000000 -1.000000
vn 0.000000 0.000000 -1.000000
vn 0.000000 0.000000 1.000000
vn 0.000000 0.000000 1.000000
vn 0.000000 0.000000 1.000000
vn -1.000000 0.000000 0.000000
vn -1.000000 0.000000 0.000000
vn -1.000000 0.000000 0.000000
vn -1.000000 0.000000 0.000000
vn -1.000000 0.000000 0.000000
vn 1.000000 0.000000 0.000000
vn 1.000000 0.000000 0.000000
vn 1.000000 0.000000 0.000000
vn 0.000000 0.000000 -1.000000
vn 0.000000 0.000000 -1.000000
vn 0.000000 0.000000 -1.000000
vn -0.000016 0.000000 1.000000
vn -0.000016 0.000000 1.000000
vn -0.000016 0.000000 1.000000
vn -0.000127 -0.000055 -1.000000
vn -0.000127 -0.000055 -1.000000
vn -0.000127 -0.000055 -1.000000
vn -0.891308 0.000002 0.453399
vn -0.891308 0.000002 0.453399
vn -0.891308 0.000002 0.453399
vn 0.000003 0.000009 -1.000000
vn 0.000003 0.000009 -1.000000
vn 0.000003 0.000009 -1.000000
vn 0.000000 1.000000 0.000000
vn 0.000000 1.000000 0.000000
vn 0.000000 1.000000 0.000000
vn -0.891403 -0.000002 0.453211
vn -0.891403 -0.000002 0.453211
vn -0.891403 -0.000002 0.453211
vn -0.000326 -1.000000 -0.000000
vn -0.000326 -1.000000 -0.000000
vn -0.000326 -1.000000 -0.000000
vn -0.000326 -1.000000 0.000000
vn -0.000326 -1.000000 0.000000
vn -0.000326 -1.000000 0.000000
vn 0.000000 -1.000000 0.000000
vn 0.000000 -1.000000 0.000000
vn 0.000000 -1.000000 0.000000
vn 0.000000 1.000000 0.000000
vn 0.000023 -0.000055 -1.000000
vn 0.000023 -0.000055 -1.000000
vn 0.000023 -0.000055 -1.000000
vn 0.000000 1.000000 0.000000
vn 0.000000 1.000000 0.000000
vn 0.000266 -1.000000 0.000000
vn 0.000266 -1.000000 0.000000
vn 0.000266 -1.000000 0.000000
vn 0.000266 -1.000000 0.000000
vn 0.000266 -1.000000 0.000000
vn 0.000266 -1.000000 0.000000
vn -0.891307 -0.001571 0.453398
vn -0.891307 -0.001571 0.453398
vn -0.891307 -0.001571 0.453398
vn 1.000000 0.000000 -0.000198
vn 1.000000 0.000000 -0.000198
vn 1.000000 0.000000 -0.000198
vn -0.000000 -1.000000 -0.000000
vn -0.000000 -1.000000 -0.000000
vn -0.000000 -1.000000 -0.000000
vn 0.895164 0.000000 -0.445736
vn 0.895164 0.000000 -0.445736
vn 0.895164 0.000000 -0.445736
vn 1.000000 -0.000001 0.000000
vn 1.000000 -0.000003 0.000000
vn -1.000000 -0.000001 0.000000
vn 0.000000 1.000000 0.000000
vn 0.000000 0.000000 1.000000
vn 0.000000 0.000000 1.000000
vn 0.000000 0.000000 -1.000000
vn 0.000000 0.000000 -1.000000
vn -1.000000 0.000000 0.000000
vn 0.999983 -0.004983 0.003005
vn 0.999983 -0.004983 0.003005
vn 0.999983 -0.004983 0.003005
vn 0.000000 1.000000 0.000000
vn -0.000016 0.000000 1.000000
vn -0.000016 0.000000 1.000000
vn 0.000000 0.000000 -1.000000
vn 0.000000 0.000000 -1.000000
vn 0.000000 1.000000 0.000000
vn 1.000000 0.000000 -0.000001
vn 0.000000 0.000000 1.000000
vn 0.000000 0.000000 1.000000
vn 0.000000 0.000000 -1.000000
vn 0.000000 0.000000 -1.000000
vn 0.000000 -1.000000 0.000000
vn 1.000000 0.000000 -0.000001
vn 0.000000 -1.000000 0.000000
vn 0.000000 0.000000 1.000000
vn -1.000000 0.000000 0.000000
vn 1.000000 0.000000 0.000000
vn 0.000000 1.000000 0.000000
vn 0.000000 1.000000 0.000000
vn 0.000000 0.000000 -1.000000
vn 0.000000 0.000000 1.000000
vn -1.000000 0.000000 0.000000
vn -1.000000 0.000000 0.000000
vn 1.000000 0.000001 -0.000001
vn 0.000000 0.000000 -1.000000
vn -0.000003 0.000006 1.000000
vn 0.000000 0.000000 -1.000000
vn 0.000000 0.000000 -1.000000
vn 0.000000 0.000000 -1.000000
vn -0.891308 0.000000 0.453398
vn -0.000019 -0.000055 -1.000000
vn -0.000019 -0.000055 -1.000000
vn -0.000019 -0.000055 -1.000000
vn 0.000000 1.000000 0.000000
vn -0.891404 0.000000 0.453210
vn -0.000326 -1.000000 -0.000000
vn -0.000326 -1.000000 -0.000000
vn -0.000326 -1.000000 -0.000000
vn -0.000326 -1.000000 0.000000
vn 0.000000 -1.000000 0.000000
vn -0.000004 0.000009 -1.000000
vn -0.000004 0.000009 -1.000000
vn -0.000004 0.000009 -1.000000
vn 0.000266 -1.000000 0.000000
vn -0.891340 0.000000 0.453335
vn -0.891340 0.000000 0.453335
vn -0.891340 0.000000 0.453335
vn 1.000000 0.000000 -0.000198
vn 0.000000 -1.000000 0.000000
vn 0.895164 0.000000 -0.445736
vn -1.000000 -0.000002 -0.000000
vn -1.000000 -0.000002 -0.000000
vn -1.000000 -0.000002 -0.000000
vn 0.000000 1.000000 0.000000
vn 0.000000 1.000000 0.000000
vn 0.000000 1.000000 0.000000
vn -1.000000 -0.000003 0.000000
vn -1.000000 -0.000003 0.000000
vn -1.000000 -0.000003 0.000000
vn 1.000000 -0.000002 0.000000
vn 1.000000 -0.000002 0.000000
vn 1.000000 -0.000002 0.000000
vn 0.000000 1.000000 0.000000
vn 0.000000 1.000000 0.000000
vn 0.000000 1.000000 0.000000
vn 0.000000 0.000000 1.000000
vn 0.000000 0.000000 1.000000
vn 0.000000 0.000000 1.000000
vn 0.000000 0.000000 -1.000000
vn 0.000000 0.000000 -1.000000
vn 0.000000 0.000000 -1.000000
vn 1.000000 0.000000 0.000000
vn 1.000000 0.000000 0.000000
vn 1.000000 0.000000 0.000000
vn -1.000000 0.000000 -0.000001
vn -1.000000 0.000000 -0.000001
vn -1.000000 0.000000 -0.000001
vn 0.000000 1.000000 0.000000
vn 0.000000 1.000000 0.000000
vn 0.000000 1.000000 0.000000
vn -0.000001 0.000000 1.000000
vn -0.000001 0.000000 1.000000
vn -0.000001 0.000000 1.000000
vn 0.000000 0.000000 -1.000000
vn 0.000000 0.000000 -1.000000
vn 0.000000 0.000000 -1.000000
vn 0.000000 1.000000 0.000000
vn 0.000000 1.000000 0.000000
vn 0.000000 1.000000 0.000000
vn 1.000000 0.000000 0.000000
vn 1.000000 0.000000 0.000000
vn 1.000000 0.000000 0.000000
vn -1.000000 0.000000 -0.000001
vn -1.000000 0.000000 -0.000001
vn -1.000000 0.000000 -0.000001
vn 0.000000 0.000000 1.000000
vn 0.000000 0.000000 1.000000
vn 0.000000 0.000000 1.000000
vn 0.000000 0.000000 -1.000000
vn 0.000000 0.000000 -1.000000
vn 0.000000 0.000000 -1.000000
vn 0.000000 -1.000000 0.000000
vn 0.000000 -1.000000 0.000000
vn 0.000000 -1.000000 0.000000
vn 1.000000 0.000000 0.000000
vn 1.000000 0.000000 0.000000
vn 1.000000 0.000000 0.000000
vn -1.000000 0.000000 -0.000001
vn -1.000000 0.000000 -0.000001
vn -1.000000 0.000000 -0.000001
vn 0.000000 -1.000000 0.000000
vn 0.000000 -1.000000 0.000000
vn 0.000000 -1.000000 0.000000
vn 0.000000 0.000000 1.000000
vn 0.000000 0.000000 1.000000
vn 1.000000 0.000000 0.000000
vn 1.000000 0.000000 0.000000
vn -1.000000 0.000000 0.000000
vn -1.000000 0.000000 0.000000
vn -1.000000 0.000000 0.000000
vn 0.000000 1.000000 0.000000
vn 0.000000 1.000000 0.000000
vn 0.000000 1.000000 0.000000
vn 0.000000 1.000000 0.000000
vn 0.000000 1.000000 0.000000
vn 0.000000 1.000000 0.000000
vn 0.000000 1.000000 0.000000
vn 0.000000 1.000000 0.000000
vn 0.000000 1.000000 0.000000
vn -1.000000 0.000000 0.000000
vn -1.000000 0.000000 0.000000
vn -1.000000 0.000000 0.000000
vn 0.000000 0.000000 -1.000000
vn 0.000000 0.000000 -1.000000
vn 0.000000 0.000000 1.000000
vn 1.000000 0.000000 0.000000
vn 1.000000 0.000000 0.000000
vn 1.000000 0.000000 0.000000
vn 1.000000 0.000000 0.000000
vn -1.000000 0.000000 0.000000
vn -1.000000 0.000000 0.000000
vn -1.000000 0.000000 0.000000
vn 0.000000 0.000000 -1.000000
vn 0.000000 0.000000 -1.000000
vn 0.000000 0.000000 -1.000000
vn 0.000015 0.000000 1.000000
vn 0.000015 0.000000 1.000000
vn 0.000015 0.000000 1.000000
vn 0.000000 0.000000 -1.000000
vn 0.000000 0.000000 -1.000000
vn 0.890533 0.000000 0.454919
vn 0.890533 0.000000 0.454919
vn 0.890533 0.000000 0.454919
vn 0.000019 -0.000055 -1.000000
vn 0.000019 -0.000055 -1.000000
vn 0.000019 -0.000055 -1.000000
vn 0.000000 1.000000 0.000000
vn 0.000000 1.000000 0.000000
vn 0.000000 1.000000 0.000000
vn 0.891215 0.000000 0.453582
vn 0.891215 0.000000 0.453582
vn 0.891215 0.000000 0.453582
vn 0.000325 -1.000000 0.000000
vn 0.000325 -1.000000 0.000000
vn 0.000325 -1.000000 0.000000
vn 0.000325 -1.000000 0.000000
vn 0.000325 -1.000000 0.000000
vn 0.000325 -1.000000 0.000000
vn 0.000000 -1.000000 0.000000
vn 0.000000 -1.000000 0.000000
vn 0.000000 -1.000000 0.000000
vn 0.000000 1.000000 0.000000
vn -0.000023 -0.000055 -1.000000
vn -0.000023 -0.000055 -1.000000
vn -0.000023 -0.000055 -1.000000
vn 0.000000 1.000000 0.000000
vn 0.000000 1.000000 0.000000
vn -0.000264 -1.000000 0.000000
vn -0.000264 -1.000000 0.000000
vn -0.000264 -1.000000 0.000000
vn -0.000264 -1.000000 0.000000
vn -0.000264 -1.000000 0.000000
vn -0.000264 -1.000000 0.000000
vn 0.891340 0.000000 0.453335
vn 0.891340 0.000000 0.453335
vn 0.891340 0.000000 0.453335
vn -1.000000 0.000000 -0.000198
vn -1.000000 0.000000 -0.000198
vn -1.000000 0.000000 -0.000198
vn 0.000000 -1.000000 0.000000
vn 0.000000 -1.000000 0.000000
vn 0.000000 -1.000000 0.000000
vn -0.895164 0.000000 -0.445736
vn -0.895164 0.000000 -0.445736
vn -0.895164 0.000000 -0.445736
vn -1.000000 0.000001 0.000000
vn -1.000000 -0.000002 -0.000000
vn 1.000000 -0.000002 0.000000
vn 0.000000 1.000000 0.000000
vn 0.000000 0.000000 1.000000
vn 0.000000 0.000000 -1.000000
vn 0.000000 0.000000 -1.000000
vn -0.999983 -0.004983 0.003005
vn -0.999983 -0.004983 0.003005
vn -0.999983 -0.004983 0.003005
vn 0.000000 1.000000 0.000000
vn 0.000000 -0.000011 1.000000
vn 0.000015 0.000000 1.000000
vn 0.000000 0.000000 -1.000000
vn 0.000000 1.000000 0.000000
vn -1.000000 0.000000 -0.000001
vn 0.000000 0.000000 1.000000
vn 0.000000 0.000000 1.000000
vn 0.000000 0.000000 -1.000000
vn 0.000000 -1.000000 0.000000
vn -1.000000 0.000000 -0.000001
vn 0.000000 -1.000000 0.000000
vn 0.000000 0.000000 1.000000
vn 1.000000 0.000000 0.000000
vn -1.000000 0.000002 0.000002
vn 0.000026 1.000000 0.000011
vn 0.000000 1.000000 0.000000
vn -1.000000 0.000000 0.000000
vn 0.000000 0.000000 -1.000000
vn 0.000000 0.000000 1.000000
vn 1.000000 0.000000 0.000000
vn 1.000000 0.000000 0.000000
vn -1.000000 0.000002 -0.000002
vn 0.000000 0.000000 -1.000000
vn 0.000003 0.000005 1.000000
vn 0.000127 -0.000055 -1.000000
vn 0.000127 -0.000055 -1.000000
vn 0.000127 -0.000055 -1.000000
vn 0.890532 0.000001 0.454920
vn -0.000003 0.000009 -1.000000
vn -0.000003 0.000009 -1.000000
vn -0.000003 0.000009 -1.000000
vn 0.000000 1.000000 0.000000
vn 0.891214 -0.000004 0.453583
vn 0.000325 -1.000000 0.000000
vn 0.000325 -1.000000 0.000000
vn 0.000325 -1.000000 0.000000
vn 0.000325 -1.000000 0.000000
vn 0.000000 -1.000000 0.000000
vn 0.000004 0.000009 -1.000000
vn 0.000004 0.000009 -1.000000
vn 0.000004 0.000009 -1.000000
vn -0.000264 -1.000000 0.000000
vn 0.891340 0.000000 0.453335
vn 0.891340 0.000000 0.453335
vn 0.891340 0.000000 0.453335
vn -1.000000 0.000000 -0.000198
vn 0.000000 -1.000000 0.000000
vn -0.895164 0.000000 -0.445736
vn 0.000016 0.000000 1.000000
vn 0.000016 0.000000 1.000000
vn 0.000016 0.000000 1.000000
vn 0.000000 1.000000 0.000000
vn 0.000000 1.000000 0.000000
vn 0.000000 1.000000 0.000000
vn -1.000000 0.000000 0.000000
vn -1.000000 0.000000 0.000000
vn -1.000000 0.000000 0.000000
vn -0.000235 -1.000000 -0.000000
vn -0.000235 -1.000000 -0.000000
vn -0.000235 -1.000000 -0.000000
vn 1.000000 0.000000 0.000000
vn 1.000000 0.000000 0.000000
vn 1.000000 0.000000 0.000000
vn 0.000003 1.000000 0.000000
vn 0.000003 1.000000 0.000000
vn 0.000003 1.000000 0.000000
vn 0.000000 0.000000 1.000000
vn 0.000000 0.000000 1.000000
vn 0.000000 0.000000 1.000000
vn 0.000000 -1.000000 0.000000
vn 0.000000 -1.000000 0.000000
vn 0.000000 -1.000000 0.000000
vn 0.000000 1.000000 0.000000
vn 0.000000 1.000000 0.000000
vn 0.000000 1.000000 0.000000
vn 0.000235 -1.000000 0.000000
vn 0.000235 -1.000000 0.000000
vn 0.000235 -1.000000 0.000000
vn -0.000016 -0.000052 1.000000
vn -0.000016 -0.000052 1.000000
vn -0.000016 -0.000052 1.000000
vn 0.000000 -1.000000 0.000000
vn 0.000000 -1.000000 0.000000
vn 0.000000 -1.000000 0.000000
vn 0.000000 1.000000 0.000000
vn 0.000000 1.000000 0.000000
vn 0.000000 1.000000 0.000000
vn 0.000000 0.000000 -1.000000
vn 0.000000 0.000000 -1.000000
vn 0.000000 0.000000 -1.000000
vn 1.000000 0.000000 0.000000
vn 1.000000 0.000000 0.000000
vn 1.000000 0.000000 0.000000
vn -1.000000 0.000000 0.000000
vn -1.000000 0.000000 0.000000
vn -1.000000 0.000000 0.000000
vn 0.000000 0.000000 1.000000
vn 0.000000 0.000000 1.000000
vn 0.000000 0.000000 1.000000
vn 0.000000 -1.000000 0.000000
vn 0.000000 -1.000000 0.000000
vn 0.000000 -1.000000 0.000000
vn 0.000000 1.000000 0.000000
vn 0.000000 1.000000 0.000000
vn 0.000000 1.000000 0.000000
vn 0.000000 0.000000 -1.000000
vn 0.000000 0.000000 -1.000000
vn 0.000000 0.000000 -1.000000
vn 1.000000 0.000000 -0.000004
vn 1.000000 0.000000 -0.000004
vn 1.000000 0.000000 -0.000004
vn -1.000000 0.000000 0.000000
vn -1.000000 0.000000 0.000000
vn -1.000000 0.000000 0.000000
vn 0.000000 0.000000 1.000000
vn 0.000000 0.000000 1.000000
vn 0.000000 0.000000 1.000000
vn 0.000000 -1.000000 0.000000
vn 0.000000 -1.000000 0.000000
vn 0.000000 -1.000000 0.000000
vn 0.000000 1.000000 0.000000
vn 0.000000 1.000000 0.000000
vn 0.000000 1.000000 0.000000
vn 0.000000 0.000000 -1.000000
vn 0.000000 0.000000 -1.000000
vn 0.000000 0.000000 -1.000000
vn 1.000000 0.000000 0.000000
vn 1.000000 0.000000 0.000000
vn 1.000000 0.000000 0.000000
vn -1.000000 0.000000 0.000000
vn -1.000000 0.000000 0.000000
vn -1.000000 0.000000 0.000000
vn 0.000000 0.000000 1.000000
vn 0.000000 0.000000 1.000000
vn 0.000000 0.000000 1.000000
vn 0.000000 0.000000 -1.000000
vn 0.000000 0.000000 -1.000000
vn 0.000000 0.000000 -1.000000
vn 1.000000 0.000000 -0.000004
vn 1.000000 0.000000 -0.000004
vn 0.000000 1.000000 0.000000
vn 0.000000 1.000000 0.000000
vn 0.000000 1.000000 0.000000
vn 0.000000 1.000000 0.000000
vn 0.000000 1.000000 0.000000
vn 0.000000 1.000000 0.000000
vn 0.000000 1.000000 0.000000
vn 0.000000 1.000000 0.000000
vn 0.000000 1.000000 0.000000
vn 0.000000 0.000000 1.000000
vn 0.000000 0.000000 1.000000
vn 0.000000 0.000000 1.000000
vn 0.000000 0.000000 -1.000000
vn 0.000000 0.000000 -1.000000
vn 1.000000 0.000000 0.000000
vn 1.000000 0.000000 0.000000
vn 1.000000 0.000000 0.000000
vn 1.000000 0.000000 0.000000
vn 0.000000 0.000000 1.000000
vn 0.000000 0.000000 1.000000
vn 0.000000 0.000000 1.000000
vn 0.000000 0.000000 -1.000000
vn 0.000000 0.000000 -1.000000
vn 0.000000 0.000000 1.000000
vn 0.000000 0.000000 1.000000
vn 0.000000 0.000000 1.000000
vn 0.000000 0.000000 -1.000000
vn 0.000000 0.000000 -1.000000
vn 0.000000 0.000000 -1.000000
vn 0.000000 0.000000 -1.000000
vn 0.000000 0.000000 -1.000000
vn 0.000000 0.000000 -1.000000
vn 0.000000 0.000000 -1.000000
vn 0.000000 0.000000 -1.000000
vn 0.000000 0.000000 -1.000000
vn 0.000016 0.000000 1.000000
vn 0.000000 1.000000 0.000000
vn -1.000000 0.000000 0.000000
vn -0.000235 -1.000000 -0.000000
vn 1.000000 0.000000 0.000000
vn 0.000003 1.000000 0.000000
vn 0.000000 0.000000 1.000000
vn 0.000000 -1.000000 0.000000
vn 0.000000 1.000000 0.000000
vn 0.000235 -1.000000 0.000000
vn 0.000000 0.000000 1.000000
vn 0.000000 0.000000 1.000000
vn 0.000000 0.000000 1.000000
vn 0.000000 -1.000000 0.000000
vn 0.000000 1.000000 0.000000
vn 0.000000 0.000000 -1.000000
vn 0.000000 0.000000 -1.000000
vn -1.000000 0.000000 0.000000
vn 0.000000 0.000000 1.000000
vn 0.000000 0.000000 1.000000
vn 0.000000 -1.000000 0.000000
vn 0.000000 1.000000 0.000000
vn 0.000000 0.000000 -1.000000
vn -1.000000 0.000000 0.000000
vn 0.000000 0.000000 1.000000
vn 0.000000 0.000000 1.000000
vn 0.000000 -1.000000 0.000000
vn 0.000000 1.000000 0.000000
vn 0.000000 0.000000 -1.000000
vn -1.000000 0.000000 0.000000
vn 0.000000 0.000000 1.000000
vn 0.000000 0.000000 1.000000
vn 0.000000 0.000000 -1.000000
vn 1.000000 0.000000 -0.000004
vn 0.000000 1.000000 0.000000
vn 0.000000 1.000000 0.000000
vn 0.000000 1.000000 0.000000
vn 0.000000 0.000000 1.000000
vn 0.000000 0.000000 -1.000000
vn 1.000000 0.000000 0.000000
vn 1.000000 0.000000 0.000000
vn 0.000000 0.000000 1.000000
vn 0.000000 0.000000 -1.000000
vn 0.000000 0.000000 1.000000
vn 0.000000 0.000000 -1.000000
vn 0.000000 0.000000 -1.000000
vn 0.000000 0.000000 -1.000000
vn 0.000266 -1.000000 0.000000
vn 0.000266 -1.000000 0.000000
vn 0.000266 -1.000000 0.000000
vn 0.000000 0.000000 1.000000
vn 0.000000 1.000000 0.000000
vn 0.000000 1.000000 0.000000
vn 0.000000 1.000000 0.000000
vn 0.000000 -1.000000 0.000000
vn 0.000000 -1.000000 0.000000
vn 0.000000 -1.000000 0.000000
vn 0.000023 -0.000055 -1.000000
vn 0.000023 -0.000055 -1.000000
vn 0.000023 -0.000055 -1.000000
vn 0.000266 -1.000000 0.000000
vn 0.000266 -1.000000 0.000000
vn 0.000266 -1.000000 0.000000
vn 0.000000 0.000000 -1.000000
vn 0.000000 0.000000 -1.000000
vn 0.000000 0.000000 -1.000000
vn 0.000000 1.000000 0.000000
vn 0.000000 1.000000 0.000000
vn 0.000000 1.000000 0.000000
vn -0.000325 -1.000000 0.000000
vn -0.000325 -1.000000 0.000000
vn -0.000325 -1.000000 0.000000
vn -1.000000 0.000000 0.000000
vn -1.000000 0.000000 0.000000
vn -1.000000 0.000000 0.000000
vn -0.000325 -1.000000 0.000000
vn -0.000325 -1.000000 0.000000
vn -0.000325 -1.000000 0.000000
vn -0.000127 -0.000055 -1.000000
vn -0.000127 -0.000055 -1.000000
vn -0.000127 -0.000055 -1.000000
vn -1.000000 0.000000 0.000000
vn -1.000000 0.000000 0.000000
vn -1.000000 0.000000 0.000000
vn -0.890865 0.000003 0.454268
vn -0.890865 0.000003 0.454268
vn -0.890865 0.000003 0.454268
vn 0.000000 1.000000 0.000000
vn 0.000000 1.000000 0.000000
vn 0.000000 1.000000 0.000000
vn 0.000000 1.000000 0.000000
vn 0.000000 1.000000 0.000000
vn 0.000000 0.000000 -1.000000
vn 0.000000 0.000000 -1.000000
vn 0.000000 0.000000 -1.000000
vn 0.000003 0.000009 -1.000000
vn 0.000003 0.000009 -1.000000
vn 0.000003 0.000009 -1.000000
vn -0.000026 1.000000 0.000011
vn -0.000026 1.000000 0.000011
vn 0.000000 1.000000 0.000000
vn 0.000000 1.000000 0.000000
vn 0.000000 1.000000 0.000000
vn 1.000000 0.000000 0.000000
vn 1.000000 0.000000 0.000000
vn 1.000000 0.000000 0.000000
vn -1.000000 0.000000 0.000000
vn -1.000000 0.000000 0.000000
vn 0.000000 0.000000 1.000000
vn 0.000000 0.000000 1.000000
vn 0.000000 0.000000 1.000000
vn -0.000016 0.000000 1.000000
vn -0.000016 0.000000 1.000000
vn -0.000016 0.000000 1.000000
vn -0.891435 0.000000 0.453148
vn -0.891435 0.000000 0.453148
vn -0.891435 0.000000 0.453148
vn 1.000000 0.000000 0.000000
vn 1.000000 0.000000 0.000000
vn 1.000000 0.000000 0.000000
vn 0.000000 -1.000000 0.000000
vn 0.000000 -1.000000 0.000000
vn 0.000000 -1.000000 0.000000
vn 0.000000 1.000000 0.000000
vn 0.000000 1.000000 0.000000
vn 0.000000 1.000000 0.000000
vn 0.000000 1.000000 0.000000
vn 0.000000 1.000000 0.000000
vn -1.000000 0.000000 0.000000
vn -1.000000 0.000000 0.000000
vn -1.000000 0.000000 0.000000
vn 1.000000 0.000000 0.000000
vn 1.000000 0.000000 0.000000
vn 1.000000 0.000000 0.000000
vn 0.000000 1.000000 0.000000
vn 0.000000 1.000000 0.000000
vn 0.000001 0.000000 1.000000
vn 0.000001 0.000000 1.000000
vn 0.000001 0.000000 1.000000
vn 0.000000 0.000000 -1.000000
vn 0.000000 0.000000 -1.000000
vn 0.000000 0.000000 -1.000000
vn -1.000000 0.000000 0.000000
vn -1.000000 0.000000 0.000000
vn -1.000000 0.000000 0.000000
vn 0.000000 0.000000 -1.000000
vn 0.000000 0.000000 -1.000000
vn 0.000000 0.000000 -1.000000
vn 0.000000 0.000000 1.000000
vn 0.000000 0.000000 1.000000
vn 0.000000 0.000000 1.000000
vn 0.000000 1.000000 0.000000
vn 0.000000 1.000000 0.000000
vn 0.000000 1.000000 0.000000
vn -1.000000 0.000000 0.000000
vn -1.000000 0.000000 0.000000
vn 1.000000 0.000000 0.000000
vn 1.000000 0.000000 0.000000
vn 1.000000 0.000000 0.000000
vn 1.000000 0.000000 0.000000
vn 1.000000 0.000000 0.000000
vn 1.000000 0.000000 0.000000
vn 0.000000 0.000000 -1.000000
vn 0.000000 0.000000 -1.000000
vn 0.000000 -1.000000 0.000000
vn 0.000000 -1.000000 0.000000
vn -1.000000 0.000000 0.000000
vn -0.891340 0.000000 0.453335
vn -0.891340 0.000000 0.453335
vn -0.891340 0.000000 0.453335
vn 1.000000 0.000000 -0.000199
vn 1.000000 0.000000 -0.000199
vn 1.000000 0.000000 -0.000199
vn -0.000000 -1.000000 -0.000000
vn -0.000000 -1.000000 -0.000000
vn -0.000000 -1.000000 -0.000000
vn 0.895164 0.000000 -0.445736
vn 0.895164 0.000000 -0.445736
vn 0.895164 0.000000 -0.445736
vn 0.000000 0.000000 1.000000
vn 0.000000 1.000000 0.000000
vn 0.000000 -1.000000 0.000000
vn -0.000004 0.000009 -1.000000
vn -0.000004 0.000009 -1.000000
vn -0.000004 0.000009 -1.000000
vn 0.000266 -1.000000 0.000000
vn 0.000000 0.000000 -1.000000
vn -0.000129 -1.000000 0.000065
vn -0.000129 -1.000000 0.000065
vn -0.000129 -1.000000 0.000065
vn -1.000000 0.000000 0.000000
vn -0.000325 -1.000000 0.000000
vn 0.000000 0.000000 -1.000000
vn 0.000000 0.000000 -1.000000
vn -1.000000 0.000000 0.000000
vn -0.890865 0.000000 0.454268
vn 0.000000 1.000000 0.000000
vn 0.000000 0.000000 -1.000000
vn -0.000019 -0.000055 -1.000000
vn -0.000019 -0.000055 -1.000000
vn -0.000019 -0.000055 -1.000000
vn 0.000000 1.000000 0.000000
vn 1.000000 0.000000 0.000000
vn -1.000000 0.000000 0.000000
vn 0.000000 0.000000 1.000000
vn -0.000003 0.000006 1.000000
vn -0.891435 0.000000 0.453148
vn 1.000000 0.000000 0.000000
vn 0.000000 -1.000000 0.000000
vn 0.000000 1.000000 0.000000
vn 0.000000 1.000000 0.000000
vn -1.000000 0.000000 0.000000
vn 1.000000 0.000000 0.000000
vn -0.000016 0.000000 1.000000
vn -0.000016 0.000000 1.000000
vn 0.000000 0.000000 -1.000000
vn 0.000000 0.000000 -1.000000
vn -1.000000 0.000000 0.000000
vn 0.000000 0.000000 -1.000000
vn 0.000000 0.000000 1.000000
vn 0.000000 0.000000 1.000000
vn 0.000000 1.000000 0.000000
vn 0.999983 -0.004983 0.003006
vn 0.999983 -0.004983 0.003006
vn 0.999983 -0.004983 0.003006
vn 0.000000 0.000000 1.000000
vn 0.000000 0.000000 1.000000
vn 1.000000 0.000000 0.000000
vn 0.000000 0.000000 -1.000000
vn 0.000000 -1.000000 0.000000
vn -0.891340 0.000000 0.453335
vn -0.891340 0.000000 0.453335
vn -0.891340 0.000000 0.453335
vn 1.000000 0.000000 -0.000199
vn 0.000000 -1.000000 0.000000
vn 0.895164 0.000000 -0.445736
vn -1.000000 0.000000 0.000000
vn -1.000000 0.000000 0.000000
vn -1.000000 0.000000 0.000000
vn 0.000000 1.000000 0.000000
vn 0.000000 1.000000 0.000000
vn 0.000000 1.000000 0.000000
vn 0.000000 1.000000 0.000000
vn 0.000000 1.000000 0.000000
vn 0.000000 1.000000 0.000000
vn 1.000000 0.000000 0.000000
vn 1.000000 0.000000 0.000000
vn 1.000000 0.000000 0.000000
vn 0.000000 -1.000000 0.000000
vn 0.000000 -1.000000 0.000000
vn 0.000000 -1.000000 0.000000
vn 0.000000 0.000000 -1.000000
vn 0.000000 0.000000 -1.000000
vn 0.000000 0.000000 -1.000000
vn 0.000000 0.000000 1.000000
vn 0.000000 0.000000 1.000000
vn 0.000000 0.000000 1.000000
vn 1.000000 0.000000 0.000000
vn 1.000000 0.000000 0.000000
vn 1.000000 0.000000 0.000000
vn -1.000000 0.000000 0.000000
vn -1.000000 0.000000 0.000000
vn -1.000000 0.000000 0.000000
vn 1.000000 0.000000 0.000000
vn 1.000000 0.000000 0.000000
vn 1.000000 0.000000 0.000000
vn 0.000000 0.000000 1.000000
vn 0.000000 0.000000 1.000000
vn 0.000000 0.000000 1.000000
vn 0.000000 0.000000 1.000000
vn 0.000000 0.000000 1.000000
vn 0.000000 0.000000 1.000000
vn 1.000000 0.000000 0.000000
vn 1.000000 0.000000 0.000000
vn 1.000000 0.000000 0.000000
vn -1.000000 0.000000 0.000000
vn -1.000000 0.000000 0.000000
vn -1.000000 0.000000 0.000000
vn -1.000000 0.000000 0.000000
vn -1.000000 0.000000 0.000000
vn -1.000000 0.000000 0.000000
vn 1.000000 0.000000 0.000000
vn 1.000000 0.000000 0.000000
vn -1.000000 0.000000 0.000000
vn -1.000000 0.000000 0.000000
vn -1.000000 0.000000 0.000000
vn 0.000000 1.000000 0.000000
vn 0.000000 1.000000 0.000000
vn 0.000000 1.000000 0.000000
vn 0.000000 1.000000 0.000000
vn 0.000000 1.000000 0.000000
vn 0.000000 1.000000 0.000000
vn 0.000000 0.000000 -1.000000
vn 0.000000 0.000000 -1.000000
vn 0.000000 0.000000 -1.000000
vn -0.000001 0.000000 1.000000
vn -0.000001 0.000000 1.000000
vn -0.000001 0.000000 1.000000
vn 0.000000 -1.000000 0.000000
vn 0.000000 -1.000000 0.000000
vn 0.000000 -1.000000 0.000000
vn 1.000000 0.000000 0.000000
vn 1.000000 0.000000 0.000000
vn -0.000266 -1.000000 0.000000
vn -0.000266 -1.000000 0.000000
vn -0.000266 -1.000000 0.000000
vn 0.000000 1.000000 0.000000
vn 0.000000 1.000000 0.000000
vn 0.000000 1.000000 0.000000
vn 0.000000 1.000000 0.000000
vn 0.000000 1.000000 0.000000
vn 0.000000 1.000000 0.000000
vn 0.000019 -0.000055 -1.000000
vn 0.000019 -0.000055 -1.000000
vn 0.000019 -0.000055 -1.000000
vn 0.000000 0.000000 -1.000000
vn 0.000000 0.000000 -1.000000
vn 0.891435 0.000000 0.453148
vn 0.891435 0.000000 0.453148
vn 0.891435 0.000000 0.453148
vn 0.000000 0.000000 -1.000000
vn 0.000000 0.000000 -1.000000
vn 0.000000 0.000000 -1.000000
vn 0.000000 0.000000 -1.000000
vn 0.000000 0.000000 -1.000000
vn 0.000129 -1.000000 0.000065
vn 0.000129 -1.000000 0.000065
vn 0.000129 -1.000000 0.000065
vn 0.000000 -1.000000 0.000000
vn 0.000000 -1.000000 0.000000
vn 0.000000 -1.000000 0.000000
vn 0.000000 0.000000 1.000000
vn 0.000000 1.000000 0.000000
vn 0.000000 1.000000 0.000000
vn 0.000000 1.000000 0.000000
vn 0.000000 1.000000 0.000000
vn 0.000325 -1.000000 0.000000
vn 0.000325 -1.000000 0.000000
vn 0.000325 -1.000000 0.000000
vn -0.000266 -1.000000 0.000000
vn -0.000266 -1.000000 0.000000
vn -0.000266 -1.000000 0.000000
vn 0.890865 0.000000 0.454268
vn 0.890865 0.000000 0.454268
vn 0.890865 0.000000 0.454268
vn 0.000000 0.000000 -1.000000
vn 0.000000 0.000000 -1.000000
vn 0.000000 0.000000 -1.000000
vn 0.000000 1.000000 0.000000
vn 0.000000 1.000000 0.000000
vn 0.000000 1.000000 0.000000
vn -0.000023 -0.000055 -1.000000
vn -0.000023 -0.000055 -1.000000
vn -0.000023 -0.000055 -1.000000
vn 0.000000 1.000000 0.000000
vn 0.000000 1.000000 0.000000
vn 1.000000 0.000000 0.000000
vn 1.000000 0.000000 0.000000
vn 0.000015 0.000000 1.000000
vn 0.000015 0.000000 1.000000
vn 0.000015 0.000000 1.000000
vn 0.891340 0.000000 0.453335
vn 0.891340 0.000000 0.453335
vn 0.891340 0.000000 0.453335
vn -1.000000 0.000000 -0.000199
vn -1.000000 0.000000 -0.000199
vn -1.000000 0.000000 -0.000199
vn 0.000000 -1.000000 0.000000
vn 0.000000 -1.000000 0.000000
vn 0.000000 -1.000000 0.000000
vn -0.895164 0.000000 -0.445736
vn -0.895164 0.000000 -0.445736
vn -0.895164 0.000000 -0.445736
vn -1.000000 0.000000 0.000000
vn 0.000000 1.000000 0.000000
vn 0.000000 -1.000000 0.000000
vn 0.000000 0.000000 -1.000000
vn 0.000000 0.000000 -1.000000
vn 0.000000 0.000000 1.000000
vn 0.000000 0.000000 1.000000
vn -0.999983 -0.004983 0.003006
vn -0.999983 -0.004983 0.003006
vn -0.999983 -0.004983 0.003006
vn 1.000000 0.000000 0.000000
vn 0.000000 0.000000 1.000000
vn 0.000000 0.000000 1.000000
vn 0.000000 0.000000 1.000000
vn -1.000000 0.000000 0.000000
vn -1.000000 0.000000 0.000000
vn 1.000000 0.000000 0.000000
vn -1.000000 0.000000 0.000000
vn 0.000026 1.000000 0.000011
vn 0.000000 0.000000 -1.000000
vn 0.000000 -0.000011 1.000000
vn 0.000015 0.000000 1.000000
vn 0.000000 -1.000000 0.000000
vn 1.000000 0.000000 0.000000
vn 0.000000 1.000000 0.000000
vn 0.000000 1.000000 0.000000
vn -0.000003 0.000009 -1.000000
vn -0.000003 0.000009 -1.000000
vn -0.000003 0.000009 -1.000000
vn 0.000127 -0.000055 -1.000000
vn 0.000127 -0.000055 -1.000000
vn 0.000127 -0.000055 -1.000000
vn 0.891435 0.000000 0.453148
vn 0.000000 0.000000 -1.000000
vn 0.000000 0.000000 -1.000000
vn 0.000325 -1.000000 0.000000
vn 0.000325 -1.000000 0.000000
vn 0.000325 -1.000000 0.000000
vn 0.000000 -1.000000 0.000000
vn 0.000000 0.000000 1.000000
vn 0.000000 1.000000 0.000000
vn 0.000325 -1.000000 0.000000
vn -0.000266 -1.000000 0.000000
vn 0.890865 0.000002 0.454268
vn 0.000000 0.000000 -1.000000
vn 0.000000 1.000000 0.000000
vn 0.000004 0.000009 -1.000000
vn 0.000004 0.000009 -1.000000
vn 0.000004 0.000009 -1.000000
vn 1.000000 0.000000 0.000000
vn 0.000003 0.000005 1.000000
vn 0.891340 0.000002 0.453335
vn 0.891340 0.000002 0.453335
vn 0.891340 0.000002 0.453335
vn -1.000000 -0.000007 -0.000201
vn 0.000000 -1.000000 0.000000
vn -0.895164 0.000000 -0.445736
vn 0.000000 0.000000 1.000000
vn 0.000000 0.000000 1.000000
vn -1.000000 0.000000 0.000000
vn 0.000000 1.000000 0.000000
vn 0.000000 0.000000 1.000000
vn 0.000000 0.000000 1.000000
vn 0.000000 0.000000 1.000000
vn 0.000000 -1.000000 0.000000
vn -1.000000 0.000000 0.000000
f 25/25/25 26/26/26 27/27/27
f 101/101/101 102/102/102 103/103/103
f 107/107/107 108/108/108 109/109/109
f 116/116/116 117/117/117 118/118/118
f 126/126/126 127/127/127 128/128/128
f 131/131/131 132/132/132 133/133/133
f 235/235/235 236/236/236 237/237/237
f 314/314/314 315/315/315 316/316/316
f 323/323/323 324/324/324 325/325/325
f 333/333/333 334/334/334 335/335/335
f 338/338/338 339/339/339 340/340/340
f 445/445/445 446/446/446 447/447/447
f 589/589/589 590/590/590 591/591/591
f 599/599/599 600/600/600 601/601/601
f 611/611/611 612/612/612 613/613/613
f 620/620/620 621/621/621 622/622/622
f 802/802/802 803/803/803 804/804/804
f 637/637/637 638/638/638 639/639/639
f 845/845/845 846/846/846 847/847/847
f 854/854/854 855/855/855 856/856/856
f 867/867/867 868/868/868 869/869/869
f 676/676/676 608/608/608 677/677/677
f 893/893/893 894/894/894 895/895/895
f 698/698/698 699/699/699 700/700/700
f 137/137/137 138/138/138 139/139/139
f 344/344/344 345/345/345 346/346/346
f 709/709/709 710/710/710 711/711/711
f 903/903/903 904/904/904 905/905/905
f 153/153/153 154/154/154 18/18/18
f 158/158/158 159/159/159 160/160/160
f 187/187/187 188/188/188 189/189/189
f 191/191/191 192/192/192 193/193/193
f 196/196/196 197/197/197 198/198/198
f 201/201/201 202/202/202 203/203/203
f 361/361/361 362/362/362 231/231/231
f 363/363/363 364/364/364 365/365/365
f 294/294/294 369/369/369 246/246/246
f 372/372/372 373/373/373 258/258/258
f 391/391/391 392/392/392 393/393/393
f 395/395/395 396/396/396 397/397/397
f 400/400/400 401/401/401 402/402/402
f 405/405/405 406/406/406 407/407/407
f 552/552/552 553/553/553 554/554/554
f 557/557/557 558/558/558 456/456/456
f 560/560/560 561/561/561 465/465/465
f 566/566/566 567/567/567 483/483/483
f 572/572/572 573/573/573 501/501/501
f 724/724/724 725/725/725 726/726/726
f 918/918/918 919/919/919 795/795/795
f 729/729/729 730/730/730 731/731/731
f 922/922/922 923/923/923 924/924/924
f 926/926/926 927/927/927 810/810/810
f 740/740/740 741/741/741 742/742/742
f 941/941/941 942/942/942 943/943/943
f 944/944/944 945/945/945 946/946/946
f 866/866/866 948/948/948 864/864/864
f 950/950/950 951/951/951 952/952/952
f 761/761/761 762/762/762 692/692/692
f 961/961/961 962/962/962 963/963/963
f 764/764/764 765/765/765 766/766/766
f 205/205/205 206/206/206 207/207/207
f 409/409/409 410/410/410 411/411/411
f 772/772/772 773/773/773 774/774/774
f 966/966/966 967/967/967 968/968/968
f 155/155/155 156/156/156 19/19/19
f 164/164/164 165/165/165 34/34/34
f 168/168/168 169/169/169 46/46/46
f 170/170/170 171/171/171 49/49/49
f 360/360/360 275/275/275 226/226/226
f 529/529/529 564/564/564 474/474/474
f 520/520/520 570/570/570 492/492/492
f 920/920/920 921/921/921 796/796/796
f 757/757/757 758/758/758 681/681/681
f 767/767/767 768/768/768 976/976/976
f 770/770/770 605/605/605 607/607/607
f 162/162/162 163/163/163 33/33/33
f 216/216/216 381/381/381 332/332/332
f 783/783/783 933/933/933 877/877/877
f 755/755/755 756/756/756 680/680/680
f 5/5/5 125/125/125 74/74/74
f 367/367/367 368/368/368 241/241/241
f 935/935/935 936/936/936 837/837/837
f 3/3/3 1/1/1 2/2/2
f 2/2/2 1/1/1 149/149/149
f 9/9/9 7/7/7 8/8/8
f 8/8/8 7/7/7 150/150/150
f 32/32/32 33/33/33 31/31/31
f 31/31/31 33/33/33 163/163/163
f 71/71/71 69/69/69 70/70/70
f 70/70/70 69/69/69 177/177/177
f 74/74/74 72/72/72 73/73/73
f 73/73/73 72/72/72 178/178/178
f 94/94/94 92/92/92 93/93/93
f 93/93/93 92/92/92 184/184/184
f 100/100/100 98/98/98 99/99/99
f 99/99/99 98/98/98 186/186/186
f 106/106/106 104/104/104 105/105/105
f 105/105/105 104/104/104 190/190/190
f 115/115/115 113/113/113 114/114/114
f 114/114/114 113/113/113 195/195/195
f 213/213/213 211/211/211 212/212/212
f 212/212/212 211/211/211 356/356/356
f 219/219/219 217/217/217 218/218/218
f 218/218/218 217/217/217 357/357/357
f 242/242/242 243/243/243 241/241/241
f 241/241/241 243/243/243 367/367/367
f 280/280/280 278/278/278 279/279/279
f 279/279/279 278/278/278 380/380/380
f 283/283/283 281/281/281 282/282/282
f 282/282/282 281/281/281 381/381/381
f 302/302/302 300/300/300 301/301/301
f 301/301/301 300/300/300 388/388/388
f 308/308/308 306/306/306 307/307/307
f 307/307/307 306/306/306 390/390/390
f 313/313/313 311/311/311 312/312/312
f 312/312/312 311/311/311 394/394/394
f 322/322/322 320/320/320 321/321/321
f 321/321/321 320/320/320 399/399/399
f 628/628/628 626/626/626 627/627/627
f 627/627/627 626/626/626 737/737/737
f 610/610/610 640/640/640 641/641/641
f 641/641/641 640/640/640 743/743/743
f 655/655/655 653/653/653 654/654/654
f 654/654/654 653/653/653 747/747/747
f 830/830/830 828/828/828 829/829/829
f 829/829/829 828/828/828 933/933/933
f 838/838/838 839/839/839 837/837/837
f 837/837/837 839/839/839 935/935/935
f 679/679/679 680/680/680 678/678/678
f 678/678/678 680/680/680 756/756/756
f 886/886/886 884/884/884 885/885/885
f 885/885/885 884/884/884 958/958/958
f 902/902/902 900/900/900 901/901/901
f 901/901/901 900/900/900 965/965/965
f 908/908/908 906/906/906 907/907/907
f 907/907/907 906/906/906 969/969/969
f 6/6/6 4/4/4 5/5/5
f 5/5/5 4/4/4 125/125/125
f 12/12/12 10/10/10 11/11/11
f 11/11/11 10/10/10 151/151/151
f 15/15/15 13/13/13 14/14/14
f 14/14/14 13/13/13 152/152/152
f 17/17/17 18/18/18 16/16/16
f 16/16/16 18/18/18 154/154/154
f 20/20/20 21/21/21 19/19/19
f 19/19/19 21/21/21 155/155/155
f 24/24/24 22/22/22 23/23/23
f 23/23/23 22/22/22 157/157/157
f 30/30/30 28/28/28 29/29/29
f 29/29/29 28/28/28 161/161/161
f 35/35/35 36/36/36 34/34/34
f 34/34/34 36/36/36 164/164/164
f 39/39/39 37/37/37 38/38/38
f 38/38/38 37/37/37 166/166/166
f 45/45/45 43/43/43 44/44/44
f 44/44/44 43/43/43 167/167/167
f 47/47/47 48/48/48 46/46/46
f 46/46/46 48/48/48 168/168/168
f 50/50/50 51/51/51 49/49/49
f 49/49/49 51/51/51 170/170/170
f 54/54/54 52/52/52 53/53/53
f 53/53/53 52/52/52 172/172/172
f 60/60/60 58/58/58 59/59/59
f 59/59/59 58/58/58 173/173/173
f 63/63/63 61/61/61 62/62/62
f 62/62/62 61/61/61 174/174/174
f 66/66/66 64/64/64 65/65/65
f 65/65/65 64/64/64 175/175/175
f 77/77/77 75/75/75 76/76/76
f 76/76/76 75/75/75 5/5/5
f 80/80/80 78/78/78 79/79/79
f 79/79/79 78/78/78 179/179/179
f 83/83/83 81/81/81 82/82/82
f 82/82/82 81/81/81 180/180/180
f 86/86/86 84/84/84 85/85/85
f 85/85/85 84/84/84 181/181/181
f 89/89/89 87/87/87 88/88/88
f 88/88/88 87/87/87 182/182/182
f 97/97/97 95/95/95 96/96/96
f 96/96/96 95/95/95 185/185/185
f 112/112/112 110/110/110 111/111/111
f 111/111/111 110/110/110 194/194/194
f 121/121/121 119/119/119 120/120/120
f 120/120/120 119/119/119 199/199/199
f 124/124/124 122/122/122 123/123/123
f 123/123/123 122/122/122 200/200/200
f 130/130/130 129/129/129 110/110/110
f 110/110/110 129/129/129 194/194/194
f 136/136/136 134/134/134 135/135/135
f 135/135/135 134/134/134 204/204/204
f 215/215/215 216/216/216 214/214/214
f 214/214/214 216/216/216 332/332/332
f 222/222/222 220/220/220 221/221/221
f 221/221/221 220/220/220 358/358/358
f 225/225/225 223/223/223 224/224/224
f 224/224/224 223/223/223 359/359/359
f 227/227/227 228/228/228 226/226/226
f 226/226/226 228/228/228 360/360/360
f 230/230/230 231/231/231 229/229/229
f 229/229/229 231/231/231 362/362/362
f 234/234/234 232/232/232 233/233/233
f 233/233/233 232/232/232 297/297/297
f 240/240/240 238/238/238 239/239/239
f 239/239/239 238/238/238 366/366/366
f 245/245/245 246/246/246 244/244/244
f 244/244/244 246/246/246 369/369/369
f 249/249/249 247/247/247 248/248/248
f 248/248/248 247/247/247 370/370/370
f 252/252/252 250/250/250 251/251/251
f 251/251/251 250/250/250 277/277/277
f 255/255/255 253/253/253 254/254/254
f 254/254/254 253/253/253 371/371/371
f 257/257/257 258/258/258 256/256/256
f 256/256/256 258/258/258 373/373/373
f 260/260/260 261/261/261 259/259/259
f 259/259/259 261/261/261 374/374/374
f 264/264/264 262/262/262 263/263/263
f 263/263/263 262/262/262 375/375/375
f 267/267/267 265/265/265 266/266/266
f 266/266/266 265/265/265 299/299/299
f 270/270/270 268/268/268 269/269/269
f 269/269/269 268/268/268 376/376/376
f 273/273/273 271/271/271 272/272/272
f 272/272/272 271/271/271 377/377/377
f 275/275/275 274/274/274 226/226/226
f 226/226/226 274/274/274 378/378/378
f 250/250/250 276/276/276 277/277/277
f 277/277/277 276/276/276 379/379/379
f 286/286/286 284/284/284 285/285/285
f 285/285/285 284/284/284 216/216/216
f 289/289/289 287/287/287 288/288/288
f 288/288/288 287/287/287 382/382/382
f 292/292/292 290/290/290 291/291/291
f 291/291/291 290/290/290 383/383/383
f 246/246/246 293/293/293 294/294/294
f 294/294/294 293/293/293 384/384/384
f 257/257/257 295/295/295 258/258/258
f 258/258/258 295/295/295 385/385/385
f 232/232/232 296/296/296 297/297/297
f 297/297/297 296/296/296 386/386/386
f 265/265/265 298/298/298 299/299/299
f 299/299/299 298/298/298 387/387/387
f 305/305/305 303/303/303 304/304/304
f 304/304/304 303/303/303 389/389/389
f 309/309/309 310/310/310 261/261/261
f 261/261/261 310/310/310 374/374/374
f 319/319/319 317/317/317 318/318/318
f 318/318/318 317/317/317 398/398/398
f 328/328/328 326/326/326 327/327/327
f 327/327/327 326/326/326 403/403/403
f 331/331/331 329/329/329 330/330/330
f 330/330/330 329/329/329 404/404/404
f 337/337/337 317/317/317 336/336/336
f 336/336/336 317/317/317 319/319/319
f 343/343/343 341/341/341 342/342/342
f 342/342/342 341/341/341 408/408/408
f 417/417/417 415/415/415 416/416/416
f 416/416/416 415/415/415 542/542/542
f 420/420/420 418/418/418 419/419/419
f 419/419/419 418/418/418 543/543/543
f 423/423/423 421/421/421 422/422/422
f 422/422/422 421/421/421 544/544/544
f 426/426/426 424/424/424 425/425/425
f 425/425/425 424/424/424 545/545/545
f 429/429/429 427/427/427 428/428/428
f 428/428/428 427/427/427 546/546/546
f 432/432/432 430/430/430 431/431/431
f 431/431/431 430/430/430 547/547/547
f 435/435/435 433/433/433 434/434/434
f 434/434/434 433/433/433 548/548/548
f 438/438/438 436/436/436 437/437/437
f 437/437/437 436/436/436 549/549/549
f 441/441/441 439/439/439 440/440/440
f 440/440/440 439/439/439 550/550/550
f 444/444/444 442/442/442 443/443/443
f 443/443/443 442/442/442 551/551/551
f 450/450/450 448/448/448 449/449/449
f 449/449/449 448/448/448 555/555/555
f 453/453/453 451/451/451 452/452/452
f 452/452/452 451/451/451 556/556/556
f 455/455/455 456/456/456 454/454/454
f 454/454/454 456/456/456 558/558/558
f 462/462/462 460/460/460 461/461/461
f 461/461/461 460/460/460 559/559/559
f 464/464/464 465/465/465 463/463/463
f 463/463/463 465/465/465 561/561/561
f 468/468/468 466/466/466 467/467/467
f 467/467/467 466/466/466 562/562/562
f 471/471/471 469/469/469 470/470/470
f 470/470/470 469/469/469 563/563/563
f 473/473/473 474/474/474 472/472/472
f 472/472/472 474/474/474 564/564/564
f 480/480/480 478/478/478 479/479/479
f 479/479/479 478/478/478 565/565/565
f 482/482/482 483/483/483 481/481/481
f 481/481/481 483/483/483 567/567/567
f 486/486/486 484/484/484 485/485/485
f 485/485/485 484/484/484 568/568/568
f 489/489/489 487/487/487 488/488/488
f 488/488/488 487/487/487 569/569/569
f 491/491/491 492/492/492 490/490/490
f 490/490/490 492/492/492 570/570/570
f 498/498/498 496/496/496 497/497/497
f 497/497/497 496/496/496 571/571/571
f 500/500/500 501/501/501 499/499/499
f 499/499/499 501/501/501 573/573/573
f 504/504/504 502/502/502 503/503/503
f 503/503/503 502/502/502 574/574/574
f 509/509/509 507/507/507 508/508/508
f 508/508/508 507/507/507 576/576/576
f 512/512/512 510/510/510 511/511/511
f 511/511/511 510/510/510 577/577/577
f 515/515/515 513/513/513 514/514/514
f 514/514/514 513/513/513 578/578/578
f 518/518/518 516/516/516 517/517/517
f 517/517/517 516/516/516 579/579/579
f 520/520/520 492/492/492 519/519/519
f 519/519/519 492/492/492 580/580/580
f 527/527/527 525/525/525 526/526/526
f 526/526/526 525/525/525 583/583/583
f 529/529/529 474/474/474 528/528/528
f 528/528/528 474/474/474 584/584/584
f 532/532/532 530/530/530 531/531/531
f 531/531/531 530/530/530 585/585/585
f 535/535/535 533/533/533 534/534/534
f 534/534/534 533/533/533 586/586/586
f 538/538/538 536/536/536 537/537/537
f 537/537/537 536/536/536 587/587/587
f 541/541/541 539/539/539 540/540/540
f 540/540/540 539/539/539 588/588/588
f 780/780/780 778/778/778 779/779/779
f 779/779/779 778/778/778 915/915/915
f 782/782/782 783/783/783 781/781/781
f 781/781/781 783/783/783 877/877/877
f 973/973/973 972/972/972 592/592/592
f 592/592/592 972/972/972 721/721/721
f 786/786/786 784/784/784 785/785/785
f 785/785/785 784/784/784 916/916/916
f 595/595/595 593/593/593 594/594/594
f 594/594/594 593/593/593 722/722/722
f 598/598/598 596/596/596 597/597/597
f 597/597/597 596/596/596 723/723/723
f 789/789/789 787/787/787 788/788/788
f 788/788/788 787/787/787 844/844/844
f 792/792/792 790/790/790 791/791/791
f 791/791/791 790/790/790 917/917/917
f 604/604/604 602/602/602 603/603/603
f 603/603/603 602/602/602 727/727/727
f 607/607/607 605/605/605 606/606/606
f 606/606/606 605/605/605 728/728/728
f 794/794/794 795/795/795 793/793/793
f 793/793/793 795/795/795 919/919/919
f 610/610/610 608/608/608 609/609/609
f 609/609/609 608/608/608 676/676/676
f 616/616/616 614/614/614 615/615/615
f 615/615/615 614/614/614 732/732/732
f 619/619/619 617/617/617 618/618/618
f 618/618/618 617/617/617 733/733/733
f 631/631/631 629/629/629 630/630/630
f 630/630/630 629/629/629 738/738/738
f 797/797/797 798/798/798 796/796/796
f 796/796/796 798/798/798 920/920/920
f 633/633/633 630/630/630 632/632/632
f 632/632/632 630/630/630 738/738/738
f 636/636/636 634/634/634 635/635/635
f 635/635/635 634/634/634 739/739/739
f 801/801/801 799/799/799 800/800/800
f 800/800/800 799/799/799 824/824/824
f 807/807/807 805/805/805 806/806/806
f 806/806/806 805/805/805 925/925/925
f 809/809/809 810/810/810 808/808/808
f 808/808/808 810/810/810 927/927/927
f 813/813/813 811/811/811 812/812/812
f 812/812/812 811/811/811 928/928/928
f 816/816/816 814/814/814 815/815/815
f 815/815/815 814/814/814 899/899/899
f 819/819/819 817/817/817 818/818/818
f 818/818/818 817/817/817 929/929/929
f 822/822/822 820/820/820 821/821/821
f 821/821/821 820/820/820 930/930/930
f 799/799/799 823/823/823 824/824/824
f 824/824/824 823/823/823 931/931/931
f 827/827/827 825/825/825 826/826/826
f 826/826/826 825/825/825 932/932/932
f 644/644/644 642/642/642 643/643/643
f 643/643/643 642/642/642 608/608/608
f 647/647/647 645/645/645 646/646/646
f 646/646/646 645/645/645 744/744/744
f 652/652/652 650/650/650 651/651/651
f 651/651/651 650/650/650 746/746/746
f 658/658/658 656/656/656 657/657/657
f 657/657/657 656/656/656 748/748/748
f 833/833/833 831/831/831 832/832/832
f 832/832/832 831/831/831 783/783/783
f 835/835/835 836/836/836 834/834/834
f 834/834/834 836/836/836 934/934/934
f 842/842/842 840/840/840 841/841/841
f 841/841/841 840/840/840 937/937/937
f 787/787/787 843/843/843 844/844/844
f 844/844/844 843/843/843 938/938/938
f 850/850/850 848/848/848 849/849/849
f 849/849/849 848/848/848 939/939/939
f 853/853/853 851/851/851 852/852/852
f 852/852/852 851/851/851 940/940/940
f 857/857/857 858/858/858 836/836/836
f 836/836/836 858/858/858 934/934/934
f 861/861/861 859/859/859 860/860/860
f 860/860/860 859/859/859 947/947/947
f 863/863/863 864/864/864 862/862/862
f 862/862/862 864/864/864 948/948/948
f 864/864/864 865/865/865 866/866/866
f 866/866/866 865/865/865 949/949/949
f 661/661/661 659/659/659 660/660/660
f 660/660/660 659/659/659 749/749/749
f 664/664/664 662/662/662 663/663/663
f 663/663/663 662/662/662 750/750/750
f 872/872/872 870/870/870 871/871/871
f 871/871/871 870/870/870 953/953/953
f 809/809/809 873/873/873 810/810/810
f 810/810/810 873/873/873 954/954/954
f 975/975/975 665/665/665 666/666/666
f 666/666/666 665/665/665 751/751/751
f 669/669/669 667/667/667 668/668/668
f 668/668/668 667/667/667 752/752/752
f 876/876/876 874/874/874 875/875/875
f 875/875/875 874/874/874 955/955/955
f 672/672/672 670/670/670 671/671/671
f 671/671/671 670/670/670 753/753/753
f 675/675/675 673/673/673 674/674/674
f 674/674/674 673/673/673 754/754/754
f 880/880/880 878/878/878 879/879/879
f 879/879/879 878/878/878 956/956/956
f 682/682/682 683/683/683 681/681/681
f 681/681/681 683/683/683 757/757/757
f 686/686/686 684/684/684 685/685/685
f 685/685/685 684/684/684 759/759/759
f 688/688/688 689/689/689 687/687/687
f 687/687/687 689/689/689 760/760/760
f 691/691/691 692/692/692 690/690/690
f 690/690/690 692/692/692 762/762/762
f 883/883/883 881/881/881 882/882/882
f 882/882/882 881/881/881 957/957/957
f 889/889/889 887/887/887 888/888/888
f 888/888/888 887/887/887 959/959/959
f 892/892/892 890/890/890 891/891/891
f 891/891/891 890/890/890 960/960/960
f 695/695/695 693/693/693 694/694/694
f 694/694/694 693/693/693 763/763/763
f 897/897/897 890/890/890 896/896/896
f 896/896/896 890/890/890 892/892/892
f 814/814/814 898/898/898 899/899/899
f 899/899/899 898/898/898 964/964/964
f 977/977/977 978/978/978 976/976/976
f 976/976/976 978/978/978 767/767/767
f 703/703/703 701/701/701 702/702/702
f 702/702/702 701/701/701 769/769/769
f 704/704/704 705/705/705 607/607/607
f 607/607/607 705/705/705 770/770/770
f 707/707/707 706/706/706 979/979/979
f 979/979/979 706/706/706 771/771/771
f 142/142/142 140/140/140 141/141/141
f 141/141/141 140/140/140 208/208/208
f 145/145/145 143/143/143 144/144/144
f 144/144/144 143/143/143 209/209/209
f 148/148/148 146/146/146 147/147/147
f 147/147/147 146/146/146 210/210/210
f 349/349/349 347/347/347 348/348/348
f 348/348/348 347/347/347 412/412/412
f 352/352/352 350/350/350 351/351/351
f 351/351/351 350/350/350 413/413/413
f 355/355/355 353/353/353 354/354/354
f 354/354/354 353/353/353 414/414/414
f 714/714/714 712/712/712 713/713/713
f 713/713/713 712/712/712 775/775/775
f 717/717/717 715/715/715 716/716/716
f 716/716/716 715/715/715 776/776/776
f 720/720/720 718/718/718 719/719/719
f 719/719/719 718/718/718 777/777/777
f 911/911/911 909/909/909 910/910/910
f 910/910/910 909/909/909 970/970/970
f 914/914/914 912/912/912 913/913/913
f 913/913/913 912/912/912 971/971/971
f 735/735/735 687/687/687 734/734/734
f 734/734/734 687/687/687 760/760/760
f 42/42/42 40/40/40 41/41/41
f 41/41/41 40/40/40 67/67/67
f 41/41/41 67/67/67 68/68/68
f 68/68/68 67/67/67 176/176/176
f 57/57/57 55/55/55 56/56/56
f 56/56/56 55/55/55 90/90/90
f 56/56/56 90/90/90 91/91/91
f 91/91/91 90/90/90 183/183/183
f 459/459/459 457/457/457 458/458/458
f 458/458/458 457/457/457 521/521/521
f 458/458/458 521/521/521 522/522/522
f 522/522/522 521/521/521 581/581/581
f 477/477/477 475/475/475 476/476/476
f 476/476/476 475/475/475 505/505/505
f 476/476/476 505/505/505 506/506/506
f 506/506/506 505/505/505 575/575/575
f 495/495/495 493/493/493 494/494/494
f 494/494/494 493/493/493 523/523/523
f 494/494/494 523/523/523 524/524/524
f 524/524/524 523/523/523 582/582/582
f 736/736/736 624/624/624 623/623/623
f 623/623/623 624/624/624 625/625/625
f 623/623/623 625/625/625 696/696/696
f 696/696/696 625/625/625 697/697/697
f 745/745/745 648/648/648 974/974/974
f 974/974/974 648/648/648 649/649/649
f 974/974/974 649/649/649 980/980/980
f 980/980/980 649/649/649 708/708/708
